<svg width="77" height="78" viewBox="0 0 77 78" fill="none" xmlns="http://www.w3.org/2000/svg">
<rect y="0.200195" width="77" height="77" rx="38.5" fill="black"/>
<g clip-path="url(#clip0_2039_3027)">
<path d="M50.75 15.2002H25.25C19.0368 15.2002 14 20.237 14 26.4502V51.9502C14 58.1634 19.0368 63.2002 25.25 63.2002H50.75C56.9632 63.2002 62 58.1634 62 51.9502V26.4502C62 20.237 56.9632 15.2002 50.75 15.2002Z" fill="black"/>
<path d="M20.3218 33.9892C20.3218 33.9892 19.434 33.3493 20.4993 32.4949L22.9811 30.2756C22.9811 30.2756 23.6913 29.5284 24.4421 30.1794L47.345 47.5192V55.8341C47.345 55.8341 47.334 57.1399 45.6583 56.9955L20.3218 33.9892Z" fill="#2489CA"/>
<path d="M26.225 39.3486L20.3218 44.7154C20.3218 44.7154 19.715 45.1668 20.3218 45.9732L23.0625 48.466C23.0625 48.466 23.7135 49.1652 24.6752 48.3698L30.9335 43.6244L26.225 39.3486Z" fill="#1070B3"/>
<path d="M36.5888 39.3931L47.4153 31.1262L47.345 22.8557C47.345 22.8557 46.8826 21.0507 45.3402 21.9902L30.9335 35.1023L36.5888 39.3931Z" fill="#0877B9"/>
<path d="M45.6583 57.0066C46.2871 57.6501 47.0491 57.4394 47.0491 57.4394L55.4861 53.282C56.5661 52.5458 56.4144 51.6323 56.4144 51.6323V26.806C56.4144 25.7148 55.2973 25.3377 55.2973 25.3377L47.985 21.8127C46.3871 20.8251 45.3403 21.9903 45.3403 21.9903C45.3403 21.9903 46.6865 21.0213 47.345 22.8558V55.6823C47.3459 55.9062 47.2966 56.1274 47.2008 56.3298C47.0085 56.7181 46.5905 57.0805 45.5881 56.9288L45.6583 57.0066Z" fill="#3C99D4"/>
</g>
<defs>
<clipPath id="clip0_2039_3027">
<rect width="48" height="48" fill="white" transform="translate(14 15.2002)"/>
</clipPath>
</defs>
</svg>
