<svg width="77" height="78" viewBox="0 0 77 78" fill="none" xmlns="http://www.w3.org/2000/svg">
<g clip-path="url(#clip0_2036_2979)">
<path d="M58.9 0.700195H18.1C8.15885 0.700195 0.0999756 8.75907 0.0999756 18.7002V59.5002C0.0999756 69.4413 8.15885 77.5002 18.1 77.5002H58.9C68.8411 77.5002 76.9 69.4413 76.9 59.5002V18.7002C76.9 8.75907 68.8411 0.700195 58.9 0.700195Z" fill="#0073AA"/>
<path d="M12.7642 39.0983C12.7642 49.2848 18.6841 58.088 27.2683 62.2598L14.9923 28.625C13.521 31.9204 12.7618 35.4893 12.7642 39.0983ZM55.8724 37.7996C55.8724 34.6193 54.73 32.4167 53.7502 30.7022C52.4455 28.5824 51.2227 26.7872 51.2227 24.6674C51.2227 22.3016 53.017 20.0996 55.5442 20.0996C55.6585 20.0996 55.7665 20.1137 55.8778 20.12C51.2992 15.9254 45.1993 13.3643 38.4991 13.3643C29.5087 13.3643 21.5986 17.9771 16.9972 24.9641C17.6008 24.9821 18.1699 24.995 18.6532 24.995C21.3451 24.995 25.5118 24.668 25.5118 24.668C26.899 24.5864 27.0628 26.624 25.6768 26.7881C25.6768 26.7881 24.2827 26.9522 22.7314 27.0335L32.1028 54.9089L37.7347 38.018L33.7252 27.0326C32.3395 26.9513 31.0267 26.7872 31.0267 26.7872C29.6398 26.7059 29.8024 24.5855 31.1893 24.6674C31.1893 24.6674 35.4391 24.9938 37.9678 24.9938C40.6594 24.9938 44.8264 24.6674 44.8264 24.6674C46.2148 24.5855 46.3777 26.6231 44.9914 26.7872C44.9914 26.7872 43.5943 26.9513 42.046 27.0326L51.3463 54.6968L53.9131 46.1192C55.0258 42.5594 55.8724 40.0028 55.8724 37.7996Z" fill="white"/>
<path d="M38.9509 41.35L31.2295 63.7869C33.5902 64.4822 36.0384 64.8353 38.4994 64.8355C41.41 64.8364 44.2997 64.3431 47.0452 63.3766C46.9738 63.264 46.9126 63.1453 46.8622 63.022L38.9509 41.35ZM61.0807 26.752C61.1976 27.6291 61.2555 28.5131 61.2541 29.398C61.2541 32.0095 60.7663 34.9453 59.2972 38.6161L51.4363 61.3438C59.0872 56.8822 64.2334 48.5935 64.2334 39.0994C64.2337 34.6249 63.091 30.4174 61.0807 26.752Z" fill="white"/>
<path d="M38.4994 9.10059C21.958 9.10059 8.5 22.5577 8.5 39.0988C8.5 55.642 21.958 69.0985 38.4994 69.0985C55.0399 69.0985 68.5 55.642 68.5 39.0988C68.4994 22.5577 55.0399 9.10059 38.4994 9.10059ZM38.4994 67.7236C22.7164 67.7236 9.8755 54.8824 9.8755 39.0988C9.8755 23.3161 22.7161 10.4761 38.4994 10.4761C54.2815 10.4761 67.1215 23.3161 67.1215 39.0988C67.1215 54.8824 54.2815 67.7236 38.4994 67.7236Z" fill="white"/>
</g>
<defs>
<clipPath id="clip0_2036_2979">
<rect x="0.0999756" y="0.700195" width="76.8" height="76.8" rx="38.4" fill="white"/>
</clipPath>
</defs>
</svg>
