<svg width="827" height="340" viewBox="0 0 827 340" fill="none" xmlns="http://www.w3.org/2000/svg">
<g clip-path="url(#clip0_2026_1501)">
<path fill-rule="evenodd" clip-rule="evenodd" d="M97.0056 23.4842L96.6504 24.5834C95.5788 26.3286 94.4337 28.3035 93.3743 30.361C91.9536 33.1135 90.5482 36.2641 89.743 39.3535C88.1386 33.3309 88.2641 25.4989 88.506 21.1113C88.5668 20.1541 88.9592 19.2481 89.6158 18.549C90.2724 17.8499 91.1522 17.4015 92.1036 17.281C92.6728 17.2015 93.2522 17.2361 93.8079 17.3827C94.3636 17.5293 94.8846 17.785 95.3405 18.135C95.7964 18.4849 96.1782 18.922 96.4635 19.4209C96.7489 19.9198 96.9321 20.4705 97.0025 21.0409L97.0056 23.4842ZM112.856 47.801C113.417 47.6724 113.959 47.4152 114.433 47.0263C116.099 45.67 116.228 42.5806 114.871 40.915C113.73 39.5104 112.277 38.3909 110.628 37.6453C108.979 36.8996 107.179 36.5484 105.37 36.6193C104.931 36.6667 104.495 36.7362 104.063 36.8275C103.343 36.9648 102.643 37.1932 101.981 37.5072C101.76 37.627 101.517 37.7021 101.267 37.7282C101.017 37.7543 100.764 37.7308 100.523 37.6592C100.282 37.5875 100.057 37.4691 99.8619 37.3106C99.6666 37.1522 99.5044 36.9568 99.3846 36.7356C99.2648 36.5145 99.1897 36.2719 99.1636 36.0218C99.1375 35.7716 99.161 35.5187 99.2326 35.2776C99.3773 34.7907 99.7095 34.3812 100.156 34.1392C100.968 33.7014 102.11 33.3309 103.264 33.0829C104.43 32.838 105.775 32.6818 107.024 32.7706L110.015 26.5552C110.245 26.0283 110.368 25.4609 110.376 24.886C110.385 24.3112 110.279 23.7404 110.065 23.207C109.85 22.6735 109.532 22.188 109.128 21.7788C108.724 21.3696 108.243 21.0449 107.713 20.8235C106.832 20.4423 105.846 20.3803 104.924 20.648C104.003 20.9157 103.203 21.4964 102.664 22.2901C99.6326 26.8277 93.2396 36.8397 92.8936 43.6155C92.6362 48.6309 92.6106 53.6556 92.817 58.6734C92.8352 59.0597 93.0022 59.4241 93.283 59.69C93.5638 59.956 93.9367 60.103 94.3234 60.1002H108.861C109.158 60.1028 109.454 60.0563 109.737 59.9624C111.04 59.5163 112.253 58.8413 113.319 57.9692C114.918 56.6696 116.144 54.9684 116.87 53.0397C117.103 52.4217 117.175 51.7546 117.079 51.1013C116.982 50.448 116.721 49.83 116.32 49.3055C115.919 48.7811 115.39 48.3675 114.785 48.1037C114.179 47.8399 113.517 47.7347 112.86 47.7979L112.856 47.801ZM103.252 51.2822C102.6 50.4824 102.293 49.4564 102.398 48.43C102.502 47.4036 103.011 46.4609 103.81 45.8093C104.61 45.1576 105.636 44.8504 106.663 44.9552C107.689 45.06 108.632 45.5682 109.283 46.368C110.138 47.4152 111.427 47.902 112.676 47.7826C112.051 47.9262 111.471 48.2223 110.988 48.6443C110.505 49.0663 110.134 49.6012 109.908 50.2014C109.666 50.8406 109.26 51.4048 108.731 51.837C108.201 52.2693 107.568 52.5545 106.893 52.6638C106.218 52.773 105.527 52.7026 104.888 52.4595C104.249 52.2164 103.686 51.8093 103.255 51.2792L103.252 51.2822Z" fill="#1B232E"/>
</g>
<g clip-path="url(#clip1_2026_1501)">
<path d="M730.232 17.6555C731.832 17.6555 733.382 17.8663 734.858 18.261L731.061 22.0563C730.773 22.3456 730.518 22.6667 730.303 23.0137H730.232C727.759 23.0137 725.342 23.7469 723.286 25.1207C721.23 26.4945 719.627 28.447 718.681 30.7315C717.735 33.016 717.487 35.5299 717.97 37.9551C718.452 40.3803 719.643 42.608 721.391 44.3565C723.14 46.1049 725.368 47.2957 727.793 47.7781C730.218 48.2605 732.732 48.0129 735.016 47.0666C737.301 46.1204 739.253 44.5179 740.627 42.4619C742.001 40.4059 742.734 37.9887 742.734 35.516V35.4445C743.077 35.2302 743.399 34.9784 743.69 34.6855L747.487 30.8901C747.882 32.3654 748.092 33.9157 748.092 35.516C748.092 45.3803 740.096 53.3764 730.232 53.3764C720.368 53.3764 712.371 45.3803 712.371 35.516C712.371 25.6516 720.368 17.6555 730.232 17.6555ZM729.492 26.6161C729.492 28.136 729.417 29.6774 729.5 31.1955L728.535 32.16C728.203 32.4918 727.94 32.8856 727.761 33.3191C727.581 33.7526 727.489 34.2172 727.489 34.6864C727.489 35.1556 727.581 35.6201 727.761 36.0536C727.94 36.4871 728.203 36.881 728.535 37.2127C728.867 37.5445 729.261 37.8077 729.694 37.9872C730.128 38.1668 730.592 38.2592 731.061 38.2592C731.531 38.2592 731.995 38.1668 732.429 37.9872C732.862 37.8077 733.256 37.5445 733.588 37.2127L734.552 36.2483C736.07 36.3304 737.61 36.2554 739.132 36.2554C738.991 37.9528 738.367 39.5744 737.335 40.929C736.302 42.2836 734.904 43.3147 733.305 43.9007C731.705 44.4867 729.972 44.6031 728.309 44.2363C726.646 43.8695 725.122 43.0346 723.918 41.8303C722.713 40.6259 721.878 39.1023 721.512 37.4391C721.145 35.7758 721.261 34.0424 721.847 32.4432C722.433 30.8439 723.464 29.4456 724.819 28.4132C726.173 27.3807 727.795 26.7572 729.492 26.6161ZM741.848 17.8823C742.174 18.0175 742.453 18.2462 742.649 18.5396C742.845 18.833 742.95 19.178 742.95 19.5309V22.7993H746.217C746.57 22.7994 746.915 22.9042 747.209 23.1005C747.503 23.2967 747.732 23.5756 747.867 23.9019C748.002 24.2282 748.037 24.5873 747.968 24.9337C747.899 25.2801 747.729 25.5983 747.48 25.8481L741.162 32.1582C740.828 32.4932 740.373 32.6814 739.9 32.6815H735.59L732.325 35.9482C731.99 36.2833 731.535 36.4716 731.061 36.4716C730.588 36.4716 730.133 36.2833 729.798 35.9482C729.463 35.6131 729.274 35.1585 729.274 34.6846C729.274 34.2106 729.463 33.7561 729.798 33.4209L733.065 30.1578V25.8463C733.064 25.6115 733.11 25.3789 733.2 25.162C733.29 24.945 733.422 24.7478 733.588 24.5818L739.902 18.2681C740.151 18.0182 740.47 17.848 740.816 17.779C741.163 17.71 741.522 17.7453 741.848 17.8806" fill="#1B232E"/>
</g>
<path d="M790.136 139.126C786.828 139.126 783.656 140.44 781.317 142.779C778.978 145.118 777.664 148.291 777.664 151.599C777.664 155.839 779.784 159.563 783.009 161.826V165.853C783.009 166.325 783.197 166.778 783.531 167.113C783.865 167.447 784.318 167.634 784.791 167.634H795.481C795.954 167.634 796.407 167.447 796.741 167.113C797.075 166.778 797.263 166.325 797.263 165.853V161.826C800.488 159.563 802.608 155.839 802.608 151.599C802.608 148.291 801.294 145.118 798.955 142.779C796.616 140.44 793.444 139.126 790.136 139.126ZM784.791 172.98C784.791 173.452 784.978 173.905 785.313 174.24C785.647 174.574 786.1 174.761 786.572 174.761H793.699C794.172 174.761 794.625 174.574 794.959 174.24C795.294 173.905 795.481 173.452 795.481 172.98V171.198H784.791V172.98Z" fill="#1B232E"/>
<path d="M712.414 258.934H728.45V274.97H712.414V258.934ZM715.978 262.498V271.407H724.887V262.498H715.978ZM740.032 262.498C738.85 262.498 737.717 262.967 736.882 263.803C736.047 264.638 735.577 265.771 735.577 266.952C735.577 268.134 736.047 269.267 736.882 270.102C737.717 270.937 738.85 271.407 740.032 271.407C741.213 271.407 742.346 270.937 743.181 270.102C744.017 269.267 744.486 268.134 744.486 266.952C744.486 265.771 744.017 264.638 743.181 263.803C742.346 262.967 741.213 262.498 740.032 262.498ZM732.014 266.952C732.014 265.899 732.221 264.857 732.624 263.884C733.027 262.911 733.618 262.027 734.362 261.283C735.107 260.538 735.991 259.948 736.963 259.545C737.936 259.142 738.979 258.934 740.032 258.934C741.085 258.934 742.127 259.142 743.1 259.545C744.073 259.948 744.957 260.538 745.701 261.283C746.446 262.027 747.036 262.911 747.439 263.884C747.842 264.857 748.05 265.899 748.05 266.952C748.05 269.079 747.205 271.118 745.701 272.622C744.198 274.125 742.158 274.97 740.032 274.97C737.905 274.97 735.866 274.125 734.362 272.622C732.859 271.118 732.014 269.079 732.014 266.952ZM712.414 278.534H728.45V294.57H712.414V278.534ZM715.978 282.097V291.006H724.887V282.097H715.978ZM732.014 278.534H748.05V294.57H732.014V278.534ZM735.577 282.097V291.006H744.486V282.097H735.577Z" fill="#1B232E"/>
<path d="M96.663 274.97L102.008 280.316L116.262 266.062" stroke="#87839A" stroke-width="3.56352" stroke-linecap="round" stroke-linejoin="round"/>
<path d="M116.262 276.752V287.442C116.262 288.388 115.887 289.294 115.219 289.962C114.55 290.631 113.644 291.006 112.699 291.006H91.3177C90.3726 291.006 89.4662 290.631 88.7979 289.962C88.1297 289.294 87.7542 288.388 87.7542 287.442V266.061C87.7542 265.116 88.1297 264.21 88.7979 263.542C89.4662 262.873 90.3726 262.498 91.3177 262.498H107.354" stroke="#87839A" stroke-width="3.56352" stroke-linecap="round" stroke-linejoin="round"/>
<g opacity="0.8" clip-path="url(#clip2_2026_1501)">
<path d="M57.5243 148.006C57.5243 148.617 57.4579 149.188 57.3251 149.719L59.7752 150.735L58.8191 153.085L56.3491 152.069C55.7249 153.052 54.9215 153.855 53.9389 154.48L54.9547 156.95L52.6043 157.926L51.5884 155.456C51.0572 155.588 50.4862 155.655 49.8753 155.655C49.2645 155.655 48.6935 155.588 48.1623 155.456L47.1464 157.926L44.7959 156.95L45.8118 154.48C44.8291 153.855 44.0257 153.052 43.4016 152.069L40.9316 153.085L39.9556 150.735L42.4255 149.719C42.2928 149.188 42.2264 148.617 42.2264 148.006C42.2264 147.395 42.2928 146.824 42.4255 146.293L39.9556 145.277L40.9316 142.926L43.4016 143.942C44.0257 142.96 44.8291 142.156 45.8118 141.532L44.7959 139.082L47.1464 138.106L48.1623 140.556C48.6935 140.423 49.2645 140.357 49.8753 140.357C50.4862 140.357 51.0572 140.423 51.5884 140.556L52.6043 138.106L54.9547 139.082L53.9389 141.532C54.9215 142.156 55.7249 142.96 56.3491 143.942L58.8191 142.926L59.7752 145.277L57.3251 146.293C57.4579 146.824 57.5243 147.395 57.5243 148.006ZM49.8753 153.105C50.5791 153.105 51.2365 152.972 51.8473 152.707C52.4582 152.441 53.0026 152.076 53.4807 151.611C53.9588 151.146 54.324 150.609 54.5763 149.998C54.8286 149.387 54.9614 148.723 54.9746 148.006C54.9746 147.302 54.8419 146.645 54.5763 146.034C54.3107 145.423 53.9455 144.878 53.4807 144.4C53.0159 143.922 52.4781 143.557 51.8673 143.305C51.2564 143.053 50.5924 142.92 49.8753 142.906C49.1715 142.906 48.5142 143.039 47.9033 143.305C47.2925 143.57 46.748 143.936 46.27 144.4C45.7919 144.865 45.4267 145.403 45.1744 146.014C44.9221 146.625 44.7893 147.289 44.776 148.006C44.776 148.71 44.9088 149.367 45.1744 149.978C45.44 150.589 45.8052 151.133 46.27 151.611C46.7347 152.089 47.2726 152.454 47.8834 152.707C48.4943 152.959 49.1582 153.092 49.8753 153.105ZM41.1507 156.332L42.1268 158.702L39.3978 159.818C39.5837 160.562 39.6767 161.299 39.6767 162.029C39.6767 162.759 39.5837 163.496 39.3978 164.24L42.1268 165.375L41.1507 167.726L38.4218 166.59C38.0234 167.268 37.5719 167.852 37.0673 168.343C36.5627 168.835 35.9784 169.293 35.3144 169.718L36.4498 172.447L34.0794 173.403L32.9639 170.674C32.2203 170.86 31.4833 170.953 30.7529 170.953C30.0225 170.953 29.2855 170.86 28.5419 170.674L27.4065 173.403L25.056 172.447L26.1914 169.718C25.5141 169.293 24.9298 168.835 24.4385 168.343C23.9472 167.852 23.489 167.268 23.0641 166.59L20.3352 167.726L19.379 165.375L22.108 164.24C21.922 163.496 21.8291 162.759 21.8291 162.029C21.8291 161.299 21.922 160.562 22.108 159.818L19.379 158.702L20.3352 156.332L23.0641 157.467C23.489 156.803 23.9472 156.219 24.4385 155.715C24.9298 155.21 25.5141 154.758 26.1914 154.36L25.056 151.631L27.4065 150.655L28.5419 153.384C29.2855 153.198 30.0225 153.105 30.7529 153.105C31.4833 153.105 32.2203 153.198 32.9639 153.384L34.0794 150.655L36.4498 151.631L35.3144 154.36C36.6025 155.144 37.6383 156.179 38.4218 157.467L41.1507 156.332ZM30.7529 168.403C31.6293 168.403 32.4527 168.237 33.2229 167.905C33.9931 167.573 34.6637 167.122 35.2347 166.551C35.8057 165.98 36.2639 165.302 36.6091 164.519C36.9544 163.735 37.127 162.905 37.127 162.029C37.127 161.152 36.961 160.329 36.6291 159.559C36.2971 158.789 35.8389 158.118 35.2546 157.547C34.6703 156.976 33.9931 156.518 33.2229 156.173C32.4527 155.827 31.6293 155.655 30.7529 155.655C29.8764 155.655 29.0531 155.821 28.2829 156.153C27.5127 156.485 26.8355 156.943 26.2512 157.527C25.6669 158.111 25.2087 158.789 24.8767 159.559C24.5447 160.329 24.3787 161.152 24.3787 162.029C24.3787 162.905 24.5447 163.729 24.8767 164.499C25.2087 165.269 25.6602 165.946 26.2312 166.531C26.8023 167.115 27.4795 167.573 28.263 167.905C29.0465 168.237 29.8764 168.403 30.7529 168.403ZM54.7755 176.251V160.953H57.3251V176.251H54.7755ZM47.1265 176.251V160.953H49.6761V176.251H47.1265Z" fill="#87839A"/>
</g>
<g clip-path="url(#clip3_2026_1501)">
<circle cx="381.56" cy="70.9281" r="5.376" fill="#1B232E" stroke="#1B232E" stroke-width="1.536"/>
<circle cx="387.704" cy="232.208" r="5.376" stroke="#1B232E" stroke-width="1.536"/>
<line x1="381.56" y1="240.656" x2="393.848" y2="240.656" stroke="black" stroke-width="1.536"/>
<line x1="381.56" y1="243.728" x2="393.848" y2="243.728" stroke="black" stroke-width="1.536"/>
<circle cx="415.352" cy="232.208" r="5.376" stroke="#1B232E" stroke-width="1.536"/>
<line x1="409.208" y1="240.656" x2="421.496" y2="240.656" stroke="black" stroke-width="1.536"/>
<line x1="409.208" y1="243.728" x2="421.496" y2="243.728" stroke="black" stroke-width="1.536"/>
<circle cx="443" cy="232.208" r="5.376" stroke="#1B232E" stroke-width="1.536"/>
<line x1="436.856" y1="240.656" x2="449.144" y2="240.656" stroke="black" stroke-width="1.536"/>
<line x1="436.856" y1="243.728" x2="449.144" y2="243.728" stroke="black" stroke-width="1.536"/>
<line x1="424.568" y1="76.3039" x2="456.824" y2="76.3039" stroke="#1B232E" stroke-width="1.536"/>
<rect width="99.84" height="82.944" transform="translate(366.2 135.44)" fill="#EEEFF3"/>
<line x1="403.832" y1="146.192" x2="428.408" y2="146.192" stroke="#1B232E" stroke-width="3.072"/>
<line x1="378.488" y1="153.104" x2="453.752" y2="153.104" stroke="#685769" stroke-width="1.536"/>
<line x1="391.544" y1="156.176" x2="440.696" y2="156.176" stroke="#685769" stroke-width="1.536"/>
<path d="M401.407 163.088H430.833C432.634 163.088 434.362 163.803 435.635 165.077C436.909 166.35 437.624 168.078 437.624 169.879V199.305C437.624 201.106 436.909 202.834 435.635 204.107C434.362 205.381 432.634 206.096 430.833 206.096H401.407C399.606 206.096 397.878 205.381 396.605 204.107C395.331 202.834 394.616 201.106 394.616 199.305V169.879C394.616 168.078 395.331 166.35 396.605 165.077C397.878 163.803 399.606 163.088 401.407 163.088ZM401.407 165.352C400.206 165.352 399.055 165.829 398.206 166.678C397.357 167.527 396.88 168.678 396.88 169.879V196.114L406.59 186.38L412.249 192.039L423.567 180.721L435.36 192.515V169.879C435.36 168.678 434.883 167.527 434.034 166.678C433.185 165.829 432.034 165.352 430.833 165.352H401.407ZM412.249 195.253L406.59 189.595L396.88 199.305C396.88 200.506 397.357 201.657 398.206 202.506C399.055 203.355 400.206 203.832 401.407 203.832H430.833C432.034 203.832 433.185 203.355 434.034 202.506C434.883 201.657 435.36 200.506 435.36 199.305V195.706L423.567 183.936L412.249 195.253ZM407.066 169.879C408.567 169.879 410.006 170.475 411.067 171.536C412.128 172.597 412.725 174.037 412.725 175.538C412.725 177.039 412.128 178.478 411.067 179.539C410.006 180.6 408.567 181.197 407.066 181.197C405.565 181.197 404.125 180.6 403.064 179.539C402.003 178.478 401.407 177.039 401.407 175.538C401.407 174.037 402.003 172.597 403.064 171.536C404.125 170.475 405.565 169.879 407.066 169.879ZM407.066 172.142C406.165 172.142 405.302 172.5 404.665 173.137C404.028 173.774 403.67 174.637 403.67 175.538C403.67 176.438 404.028 177.302 404.665 177.939C405.302 178.575 406.165 178.933 407.066 178.933C407.966 178.933 408.83 178.575 409.467 177.939C410.103 177.302 410.461 176.438 410.461 175.538C410.461 174.637 410.103 173.774 409.467 173.137C408.83 172.5 407.966 172.142 407.066 172.142Z" fill="black"/>
<line x1="385.4" y1="92.432" x2="446.84" y2="92.432" stroke="#1B232E" stroke-width="3.072"/>
<line x1="378.488" y1="99.3439" x2="453.752" y2="99.3439" stroke="#685769" stroke-width="1.536"/>
<line x1="391.544" y1="102.416" x2="440.696" y2="102.416" stroke="#685769" stroke-width="1.536"/>
<rect x="397.688" y="109.328" width="36.864" height="9.216" fill="#87839A"/>
</g>
<rect x="366.968" y="56.336" width="98.304" height="201.216" rx="11.52" stroke="#1B232E" stroke-width="1.536"/>
<circle cx="415.352" cy="156.944" r="146.688" stroke="#87839A" stroke-width="1.536"/>
<path d="M329.372 37.136C353.576 19.7355 383.267 9.48804 415.352 9.48804C447.437 9.48804 477.128 19.7355 501.332 37.136C538.562 63.9014 562.808 107.591 562.808 156.944C562.808 206.297 538.562 249.987 501.332 276.752" stroke="#E76268" stroke-width="6.144"/>
<circle cx="329.336" cy="276.752" r="8.448" fill="#87839A" stroke="#87839A" stroke-width="1.536"/>
<circle cx="267.896" cy="156.944" r="8.448" fill="#87839A" stroke="#87839A" stroke-width="1.536"/>
<line x1="329.336" y1="37.52" x2="151.16" y2="37.52" stroke="black" stroke-width="0.768"/>
<line x1="267.896" y1="157.328" x2="89.72" y2="157.328" stroke="#87839A" stroke-width="0.768"/>
<line x1="329.336" y1="277.136" x2="151.16" y2="277.136" stroke="#87839A" stroke-width="0.768"/>
<line x1="681.08" y1="37.52" x2="502.904" y2="37.52" stroke="black" stroke-width="0.768"/>
<line x1="740.984" y1="157.328" x2="562.808" y2="157.328" stroke="black" stroke-width="0.768"/>
<line x1="681.08" y1="277.136" x2="502.904" y2="277.136" stroke="black" stroke-width="0.768"/>
<path d="M62.6869 87.162C62.0209 87.162 61.3969 87.057 60.8149 86.847C60.2329 86.637 59.7259 86.331 59.2939 85.929C58.8619 85.521 58.5199 85.02 58.2679 84.426C58.0219 83.826 57.8989 83.142 57.8989 82.374C57.8989 81.696 58.0129 81.069 58.2409 80.493C58.4689 79.911 58.7839 79.407 59.1859 78.981C59.5879 78.555 60.0559 78.222 60.5899 77.982C61.1299 77.742 61.7119 77.622 62.3359 77.622C62.9539 77.622 63.5269 77.73 64.0549 77.946C64.5829 78.156 65.0389 78.465 65.4229 78.873C65.8129 79.275 66.1189 79.776 66.3409 80.376C66.5689 80.97 66.6919 81.648 66.7099 82.41C66.0319 82.398 65.3539 82.389 64.6759 82.383C63.9979 82.377 63.2929 82.374 62.5609 82.374C62.0389 82.374 61.5289 82.377 61.0309 82.383C60.5389 82.389 60.0949 82.398 59.6989 82.41C59.7349 83.034 59.8309 83.598 59.9869 84.102C60.1489 84.606 60.3679 85.038 60.6439 85.398C60.9259 85.752 61.2649 86.025 61.6609 86.217C62.0629 86.409 62.5159 86.505 63.0199 86.505C63.3679 86.505 63.6949 86.466 64.0009 86.388C64.3129 86.304 64.5949 86.19 64.8469 86.046C65.0989 85.902 65.3239 85.734 65.5219 85.542C65.7199 85.344 65.8879 85.131 66.0259 84.903L66.1339 84.957L65.4679 86.559C65.1439 86.727 64.7569 86.871 64.3069 86.991C63.8569 87.105 63.3169 87.162 62.6869 87.162ZM61.4899 81.672C62.0899 81.672 62.6899 81.672 63.2899 81.672C63.8959 81.666 64.4449 81.654 64.9369 81.636C64.8829 81.114 64.7809 80.646 64.6309 80.232C64.4809 79.818 64.2889 79.467 64.0549 79.179C63.8209 78.891 63.5449 78.669 63.2269 78.513C62.9089 78.357 62.5579 78.279 62.1739 78.279C61.8259 78.279 61.5049 78.357 61.2109 78.513C60.9229 78.663 60.6709 78.882 60.4549 79.17C60.2389 79.458 60.0649 79.812 59.9329 80.232C59.8009 80.646 59.7229 81.12 59.6989 81.654C59.9689 81.666 60.2539 81.672 60.5539 81.672C60.8539 81.672 61.1659 81.672 61.4899 81.672ZM75.3852 80.934C75.3852 80.538 75.3432 80.196 75.2592 79.908C75.1812 79.62 75.0642 79.383 74.9082 79.197C74.7582 79.005 74.5752 78.864 74.3592 78.774C74.1432 78.678 73.9032 78.63 73.6392 78.63C73.4592 78.63 73.2582 78.666 73.0362 78.738C72.8142 78.81 72.5832 78.909 72.3432 79.035C72.1092 79.155 71.8722 79.296 71.6322 79.458C71.3982 79.62 71.1762 79.794 70.9662 79.98C70.9542 80.172 70.9482 80.379 70.9482 80.601C70.9482 80.817 70.9482 81.051 70.9482 81.303V83.481C70.9482 83.991 70.9542 84.438 70.9662 84.822C70.9782 85.2 70.9962 85.527 71.0202 85.803C71.0442 86.079 71.0712 86.31 71.1012 86.496C71.1312 86.682 71.1642 86.838 71.2002 86.964V87H69.1212V86.964C69.1572 86.838 69.1902 86.682 69.2202 86.496C69.2562 86.31 69.2832 86.079 69.3012 85.803C69.3252 85.527 69.3432 85.2 69.3552 84.822C69.3732 84.438 69.3822 83.991 69.3822 83.481V81.303C69.3822 80.793 69.3732 80.349 69.3552 79.971C69.3432 79.587 69.3252 79.257 69.3012 78.981C69.2832 78.705 69.2562 78.474 69.2202 78.288C69.1902 78.102 69.1572 77.946 69.1212 77.82V77.784H71.2002V77.82C71.1522 77.958 71.1132 78.135 71.0832 78.351C71.0592 78.561 71.0322 78.828 71.0022 79.152C71.2422 78.96 71.5002 78.771 71.7762 78.585C72.0522 78.399 72.3342 78.234 72.6222 78.09C72.9162 77.946 73.2102 77.829 73.5042 77.739C73.7982 77.649 74.0892 77.604 74.3772 77.604C74.7192 77.604 75.0222 77.649 75.2862 77.739C75.5502 77.829 75.7812 77.952 75.9792 78.108C76.1772 78.264 76.3422 78.447 76.4742 78.657C76.6122 78.867 76.7172 79.092 76.7892 79.332C77.0352 79.122 77.3022 78.915 77.5902 78.711C77.8842 78.501 78.1842 78.315 78.4902 78.153C78.8022 77.991 79.1172 77.859 79.4352 77.757C79.7592 77.655 80.0742 77.604 80.3802 77.604C80.8482 77.604 81.2442 77.685 81.5682 77.847C81.8982 78.009 82.1652 78.222 82.3692 78.486C82.5792 78.75 82.7292 79.053 82.8192 79.395C82.9152 79.731 82.9632 80.073 82.9632 80.421V83.481C82.9632 83.991 82.9692 84.438 82.9812 84.822C82.9932 85.2 83.0112 85.527 83.0352 85.803C83.0592 86.079 83.0862 86.31 83.1162 86.496C83.1522 86.682 83.1882 86.838 83.2242 86.964V87H81.1362V86.964C81.1722 86.838 81.2052 86.682 81.2352 86.496C81.2712 86.31 81.3012 86.079 81.3252 85.803C81.3492 85.527 81.3672 85.2 81.3792 84.822C81.3912 84.438 81.3972 83.991 81.3972 83.481V80.934C81.3972 80.142 81.2382 79.56 80.9202 79.188C80.6022 78.816 80.1762 78.63 79.6422 78.63C79.4562 78.63 79.2492 78.666 79.0212 78.738C78.7992 78.81 78.5682 78.909 78.3282 79.035C78.0882 79.161 77.8482 79.308 77.6082 79.476C77.3682 79.638 77.1432 79.812 76.9332 79.998C76.9452 80.07 76.9512 80.142 76.9512 80.214C76.9512 80.286 76.9512 80.355 76.9512 80.421V83.481C76.9512 83.991 76.9572 84.438 76.9692 84.822C76.9872 85.2 77.0052 85.527 77.0232 85.803C77.0472 86.079 77.0742 86.31 77.1042 86.496C77.1402 86.682 77.1762 86.838 77.2122 86.964V87H75.1332V86.964C75.1692 86.838 75.2022 86.682 75.2322 86.496C75.2622 86.31 75.2892 86.079 75.3132 85.803C75.3372 85.527 75.3552 85.2 75.3672 84.822C75.3792 84.438 75.3852 83.991 75.3852 83.481V80.934ZM86.4094 81.123C86.4094 80.613 86.4004 80.169 86.3824 79.791C86.3704 79.407 86.3524 79.077 86.3284 78.801C86.3104 78.525 86.2834 78.294 86.2474 78.108C86.2174 77.922 86.1844 77.766 86.1484 77.64V77.604H88.2274V77.64C88.1974 77.73 88.1704 77.832 88.1464 77.946C88.1224 78.06 88.1014 78.189 88.0834 78.333C88.4374 78.129 88.8274 77.958 89.2534 77.82C89.6854 77.676 90.1624 77.604 90.6844 77.604C91.3504 77.604 91.9564 77.718 92.5024 77.946C93.0544 78.168 93.5254 78.489 93.9154 78.909C94.3114 79.329 94.6174 79.836 94.8334 80.43C95.0494 81.024 95.1574 81.69 95.1574 82.428C95.1574 83.046 95.0494 83.64 94.8334 84.21C94.6234 84.78 94.3114 85.284 93.8974 85.722C93.4894 86.16 92.9854 86.511 92.3854 86.775C91.7854 87.033 91.0954 87.162 90.3154 87.162C89.8474 87.162 89.4214 87.126 89.0374 87.054C88.6534 86.982 88.2994 86.889 87.9754 86.775V88.089C87.9754 88.599 87.9814 89.043 87.9934 89.421C88.0054 89.805 88.0234 90.135 88.0474 90.411C88.0714 90.687 88.0984 90.918 88.1284 91.104C88.1584 91.29 88.1914 91.446 88.2274 91.572V91.608H86.1484V91.572C86.1844 91.446 86.2174 91.29 86.2474 91.104C86.2834 90.918 86.3104 90.687 86.3284 90.411C86.3524 90.135 86.3704 89.805 86.3824 89.421C86.4004 89.043 86.4094 88.599 86.4094 88.089V81.123ZM90.3694 78.279C90.1654 78.279 89.9554 78.306 89.7394 78.36C89.5294 78.408 89.3194 78.48 89.1094 78.576C88.9054 78.666 88.7074 78.783 88.5154 78.927C88.3294 79.065 88.1614 79.224 88.0114 79.404C87.9994 79.632 87.9904 79.89 87.9844 80.178C87.9784 80.466 87.9754 80.781 87.9754 81.123V85.839C88.0954 85.929 88.2304 86.013 88.3804 86.091C88.5304 86.169 88.6984 86.241 88.8844 86.307C89.0764 86.367 89.2894 86.415 89.5234 86.451C89.7634 86.487 90.0274 86.505 90.3154 86.505C90.7834 86.505 91.2064 86.421 91.5844 86.253C91.9624 86.085 92.2804 85.842 92.5384 85.524C92.8024 85.206 93.0034 84.819 93.1414 84.363C93.2854 83.907 93.3574 83.391 93.3574 82.815C93.3574 82.167 93.3034 81.567 93.1954 81.015C93.0874 80.457 92.9134 79.977 92.6734 79.575C92.4394 79.167 92.1334 78.849 91.7554 78.621C91.3774 78.393 90.9154 78.279 90.3694 78.279ZM104.103 80.934C104.103 80.142 103.944 79.56 103.626 79.188C103.308 78.816 102.882 78.63 102.348 78.63C102.15 78.63 101.928 78.672 101.682 78.756C101.442 78.834 101.193 78.942 100.935 79.08C100.683 79.218 100.431 79.38 100.179 79.566C99.9267 79.746 99.6927 79.938 99.4767 80.142V83.481C99.4767 83.991 99.4827 84.438 99.4947 84.822C99.5067 85.2 99.5247 85.527 99.5487 85.803C99.5727 86.079 99.5997 86.31 99.6297 86.496C99.6597 86.682 99.6927 86.838 99.7287 86.964V87H97.6497V86.964C97.6857 86.838 97.7187 86.682 97.7487 86.496C97.7847 86.31 97.8117 86.079 97.8297 85.803C97.8537 85.527 97.8717 85.2 97.8837 84.822C97.9017 84.438 97.9107 83.991 97.9107 83.481V77.064C97.9107 76.554 97.9017 76.11 97.8837 75.732C97.8717 75.348 97.8537 75.018 97.8297 74.742C97.8117 74.466 97.7847 74.235 97.7487 74.049C97.7187 73.863 97.6857 73.707 97.6497 73.581V73.545H99.7287V73.581C99.6927 73.707 99.6597 73.863 99.6297 74.049C99.5997 74.235 99.5727 74.466 99.5487 74.742C99.5247 75.018 99.5067 75.348 99.4947 75.732C99.4827 76.11 99.4767 76.554 99.4767 77.064V79.368C99.7167 79.152 99.9807 78.939 100.269 78.729C100.563 78.519 100.866 78.33 101.178 78.162C101.49 77.994 101.808 77.859 102.132 77.757C102.456 77.655 102.774 77.604 103.086 77.604C103.554 77.604 103.95 77.685 104.274 77.847C104.604 78.009 104.871 78.222 105.075 78.486C105.285 78.75 105.435 79.053 105.525 79.395C105.621 79.731 105.669 80.073 105.669 80.421V83.481C105.669 83.991 105.675 84.438 105.687 84.822C105.699 85.2 105.717 85.527 105.741 85.803C105.765 86.079 105.792 86.31 105.822 86.496C105.852 86.682 105.885 86.838 105.921 86.964V87H103.842V86.964C103.878 86.838 103.911 86.682 103.941 86.496C103.977 86.31 104.004 86.079 104.022 85.803C104.046 85.527 104.064 85.2 104.076 84.822C104.094 84.438 104.103 83.991 104.103 83.481V80.934ZM108.404 84.345C108.404 83.871 108.5 83.46 108.692 83.112C108.89 82.764 109.151 82.467 109.475 82.221C109.799 81.975 110.168 81.777 110.582 81.627C110.996 81.471 111.425 81.351 111.869 81.267C112.313 81.177 112.751 81.117 113.183 81.087C113.615 81.051 114.011 81.03 114.371 81.024V80.565C114.371 80.169 114.32 79.827 114.218 79.539C114.116 79.251 113.972 79.014 113.786 78.828C113.6 78.636 113.375 78.495 113.111 78.405C112.853 78.309 112.568 78.261 112.256 78.261C112.04 78.261 111.827 78.279 111.617 78.315C111.407 78.351 111.188 78.411 110.96 78.495C110.738 78.579 110.501 78.693 110.249 78.837C110.003 78.981 109.736 79.164 109.448 79.386L109.358 79.332L109.97 78.063C110.168 77.973 110.363 77.901 110.555 77.847C110.747 77.787 110.942 77.739 111.14 77.703C111.338 77.667 111.539 77.643 111.743 77.631C111.953 77.613 112.172 77.604 112.4 77.604C113.03 77.604 113.567 77.682 114.011 77.838C114.461 77.988 114.827 78.198 115.109 78.468C115.397 78.732 115.607 79.044 115.739 79.404C115.871 79.758 115.937 80.139 115.937 80.547V83.481C115.937 83.991 115.943 84.438 115.955 84.822C115.973 85.2 115.991 85.527 116.009 85.803C116.033 86.079 116.06 86.31 116.09 86.496C116.126 86.682 116.162 86.838 116.198 86.964V87H114.209V86.964C114.239 86.868 114.26 86.76 114.272 86.64C114.29 86.52 114.305 86.376 114.317 86.208C114.191 86.316 114.041 86.427 113.867 86.541C113.699 86.655 113.504 86.76 113.282 86.856C113.066 86.946 112.823 87.018 112.553 87.072C112.289 87.132 111.998 87.162 111.68 87.162C110.636 87.162 109.829 86.919 109.259 86.433C108.689 85.941 108.404 85.245 108.404 84.345ZM114.371 81.726C113.825 81.732 113.3 81.765 112.796 81.825C112.292 81.879 111.845 81.996 111.455 82.176C111.071 82.356 110.762 82.614 110.528 82.95C110.3 83.28 110.186 83.721 110.186 84.273C110.186 84.981 110.363 85.521 110.717 85.893C111.071 86.265 111.56 86.451 112.184 86.451C112.472 86.451 112.733 86.412 112.967 86.334C113.207 86.25 113.417 86.148 113.597 86.028C113.783 85.902 113.939 85.767 114.065 85.623C114.191 85.473 114.287 85.329 114.353 85.191C114.365 84.963 114.371 84.711 114.371 84.435C114.371 84.153 114.371 83.835 114.371 83.481V81.726ZM123.469 79.593L123.343 79.611C123.301 79.473 123.232 79.326 123.136 79.17C123.046 79.014 122.926 78.87 122.776 78.738C122.632 78.606 122.455 78.498 122.245 78.414C122.041 78.324 121.804 78.279 121.534 78.279C121.348 78.279 121.171 78.306 121.003 78.36C120.841 78.414 120.697 78.495 120.571 78.603C120.451 78.705 120.355 78.834 120.283 78.99C120.211 79.146 120.175 79.329 120.175 79.539C120.175 79.833 120.265 80.115 120.445 80.385C120.631 80.649 120.862 80.913 121.138 81.177C121.414 81.435 121.711 81.696 122.029 81.96C122.353 82.224 122.653 82.5 122.929 82.788C123.205 83.076 123.433 83.385 123.613 83.715C123.799 84.039 123.892 84.39 123.892 84.768C123.892 85.074 123.838 85.374 123.73 85.668C123.622 85.956 123.454 86.214 123.226 86.442C123.004 86.67 122.716 86.856 122.362 87C122.014 87.138 121.597 87.207 121.111 87.207C120.823 87.207 120.553 87.18 120.301 87.126C120.055 87.072 119.827 87.006 119.617 86.928C119.413 86.844 119.227 86.754 119.059 86.658C118.897 86.556 118.753 86.46 118.627 86.37L118.717 84.66H118.861C118.921 84.942 119.011 85.2 119.131 85.434C119.251 85.668 119.398 85.869 119.572 86.037C119.752 86.199 119.956 86.328 120.184 86.424C120.412 86.514 120.661 86.559 120.931 86.559C121.375 86.559 121.726 86.436 121.984 86.19C122.248 85.944 122.38 85.623 122.38 85.227C122.38 84.909 122.29 84.618 122.11 84.354C121.936 84.084 121.714 83.826 121.444 83.58C121.174 83.334 120.883 83.088 120.571 82.842C120.265 82.596 119.977 82.335 119.707 82.059C119.437 81.777 119.212 81.471 119.032 81.141C118.858 80.805 118.771 80.424 118.771 79.998C118.771 79.65 118.834 79.332 118.96 79.044C119.092 78.75 119.272 78.501 119.5 78.297C119.734 78.087 120.01 77.925 120.328 77.811C120.646 77.697 120.994 77.64 121.372 77.64C121.87 77.64 122.284 77.694 122.614 77.802C122.95 77.904 123.205 78.003 123.379 78.099L123.469 79.593ZM126.727 81.303C126.727 80.793 126.718 80.349 126.7 79.971C126.688 79.587 126.67 79.257 126.646 78.981C126.628 78.705 126.601 78.474 126.565 78.288C126.535 78.102 126.502 77.946 126.466 77.82V77.784H128.545V77.82C128.509 77.946 128.476 78.102 128.446 78.288C128.416 78.474 128.389 78.705 128.365 78.981C128.341 79.257 128.323 79.587 128.311 79.971C128.299 80.349 128.293 80.793 128.293 81.303V83.481C128.293 83.991 128.299 84.438 128.311 84.822C128.323 85.2 128.341 85.527 128.365 85.803C128.389 86.079 128.416 86.31 128.446 86.496C128.476 86.682 128.509 86.838 128.545 86.964V87H126.466V86.964C126.502 86.838 126.535 86.682 126.565 86.496C126.601 86.31 126.628 86.079 126.646 85.803C126.67 85.527 126.688 85.2 126.7 84.822C126.718 84.438 126.727 83.991 126.727 83.481V81.303ZM126.538 75.057C126.538 74.925 126.562 74.802 126.61 74.688C126.664 74.568 126.733 74.466 126.817 74.382C126.901 74.292 127 74.223 127.114 74.175C127.234 74.121 127.363 74.094 127.501 74.094C127.639 74.094 127.765 74.121 127.879 74.175C127.999 74.223 128.101 74.292 128.185 74.382C128.275 74.466 128.344 74.568 128.392 74.688C128.446 74.802 128.473 74.925 128.473 75.057C128.473 75.333 128.38 75.564 128.194 75.75C128.008 75.936 127.777 76.029 127.501 76.029C127.363 76.029 127.234 76.005 127.114 75.957C127 75.903 126.901 75.834 126.817 75.75C126.733 75.66 126.664 75.558 126.61 75.444C126.562 75.324 126.538 75.195 126.538 75.057ZM135.924 79.593L135.798 79.611C135.756 79.473 135.687 79.326 135.591 79.17C135.501 79.014 135.381 78.87 135.231 78.738C135.087 78.606 134.91 78.498 134.7 78.414C134.496 78.324 134.259 78.279 133.989 78.279C133.803 78.279 133.626 78.306 133.458 78.36C133.296 78.414 133.152 78.495 133.026 78.603C132.906 78.705 132.81 78.834 132.738 78.99C132.666 79.146 132.63 79.329 132.63 79.539C132.63 79.833 132.72 80.115 132.9 80.385C133.086 80.649 133.317 80.913 133.593 81.177C133.869 81.435 134.166 81.696 134.484 81.96C134.808 82.224 135.108 82.5 135.384 82.788C135.66 83.076 135.888 83.385 136.068 83.715C136.254 84.039 136.347 84.39 136.347 84.768C136.347 85.074 136.293 85.374 136.185 85.668C136.077 85.956 135.909 86.214 135.681 86.442C135.459 86.67 135.171 86.856 134.817 87C134.469 87.138 134.052 87.207 133.566 87.207C133.278 87.207 133.008 87.18 132.756 87.126C132.51 87.072 132.282 87.006 132.072 86.928C131.868 86.844 131.682 86.754 131.514 86.658C131.352 86.556 131.208 86.46 131.082 86.37L131.172 84.66H131.316C131.376 84.942 131.466 85.2 131.586 85.434C131.706 85.668 131.853 85.869 132.027 86.037C132.207 86.199 132.411 86.328 132.639 86.424C132.867 86.514 133.116 86.559 133.386 86.559C133.83 86.559 134.181 86.436 134.439 86.19C134.703 85.944 134.835 85.623 134.835 85.227C134.835 84.909 134.745 84.618 134.565 84.354C134.391 84.084 134.169 83.826 133.899 83.58C133.629 83.334 133.338 83.088 133.026 82.842C132.72 82.596 132.432 82.335 132.162 82.059C131.892 81.777 131.667 81.471 131.487 81.141C131.313 80.805 131.226 80.424 131.226 79.998C131.226 79.65 131.289 79.332 131.415 79.044C131.547 78.75 131.727 78.501 131.955 78.297C132.189 78.087 132.465 77.925 132.783 77.811C133.101 77.697 133.449 77.64 133.827 77.64C134.325 77.64 134.739 77.694 135.069 77.802C135.405 77.904 135.66 78.003 135.834 78.099L135.924 79.593ZM143.159 87.162C142.493 87.162 141.869 87.057 141.287 86.847C140.705 86.637 140.198 86.331 139.766 85.929C139.334 85.521 138.992 85.02 138.74 84.426C138.494 83.826 138.371 83.142 138.371 82.374C138.371 81.696 138.485 81.069 138.713 80.493C138.941 79.911 139.256 79.407 139.658 78.981C140.06 78.555 140.528 78.222 141.062 77.982C141.602 77.742 142.184 77.622 142.808 77.622C143.426 77.622 143.999 77.73 144.527 77.946C145.055 78.156 145.511 78.465 145.895 78.873C146.285 79.275 146.591 79.776 146.813 80.376C147.041 80.97 147.164 81.648 147.182 82.41C146.504 82.398 145.826 82.389 145.148 82.383C144.47 82.377 143.765 82.374 143.033 82.374C142.511 82.374 142.001 82.377 141.503 82.383C141.011 82.389 140.567 82.398 140.171 82.41C140.207 83.034 140.303 83.598 140.459 84.102C140.621 84.606 140.84 85.038 141.116 85.398C141.398 85.752 141.737 86.025 142.133 86.217C142.535 86.409 142.988 86.505 143.492 86.505C143.84 86.505 144.167 86.466 144.473 86.388C144.785 86.304 145.067 86.19 145.319 86.046C145.571 85.902 145.796 85.734 145.994 85.542C146.192 85.344 146.36 85.131 146.498 84.903L146.606 84.957L145.94 86.559C145.616 86.727 145.229 86.871 144.779 86.991C144.329 87.105 143.789 87.162 143.159 87.162ZM141.962 81.672C142.562 81.672 143.162 81.672 143.762 81.672C144.368 81.666 144.917 81.654 145.409 81.636C145.355 81.114 145.253 80.646 145.103 80.232C144.953 79.818 144.761 79.467 144.527 79.179C144.293 78.891 144.017 78.669 143.699 78.513C143.381 78.357 143.03 78.279 142.646 78.279C142.298 78.279 141.977 78.357 141.683 78.513C141.395 78.663 141.143 78.882 140.927 79.17C140.711 79.458 140.537 79.812 140.405 80.232C140.273 80.646 140.195 81.12 140.171 81.654C140.441 81.666 140.726 81.672 141.026 81.672C141.326 81.672 141.638 81.672 141.962 81.672Z" fill="#1B232E"/>
<path d="M6.30254 197.664V197.7C6.29054 197.73 6.28154 197.775 6.27554 197.835C6.26954 197.895 6.26654 197.949 6.26654 197.997C6.26654 198.183 6.29354 198.39 6.34754 198.618C6.40154 198.84 6.49754 199.119 6.63554 199.455L8.78654 204.576L10.9645 199.527C11.0545 199.305 11.1505 199.062 11.2525 198.798C11.3545 198.534 11.4055 198.267 11.4055 197.997C11.4055 197.919 11.3995 197.856 11.3875 197.808C11.3755 197.754 11.3635 197.718 11.3515 197.7V197.664H12.9715V197.7C12.8635 197.814 12.7255 198.018 12.5575 198.312C12.3955 198.6 12.2215 198.963 12.0355 199.401L8.71454 207.006H8.18354L5.10554 199.842C4.99754 199.578 4.88054 199.326 4.75454 199.086C4.63454 198.84 4.51754 198.621 4.40354 198.429C4.29554 198.237 4.19954 198.078 4.11554 197.952C4.03154 197.82 3.97454 197.736 3.94454 197.7V197.664H6.30254ZM14.2578 204.225C14.2578 203.751 14.3538 203.34 14.5458 202.992C14.7438 202.644 15.0048 202.347 15.3288 202.101C15.6528 201.855 16.0218 201.657 16.4358 201.507C16.8498 201.351 17.2788 201.231 17.7228 201.147C18.1668 201.057 18.6048 200.997 19.0368 200.967C19.4688 200.931 19.8648 200.91 20.2248 200.904V200.445C20.2248 200.049 20.1738 199.707 20.0718 199.419C19.9698 199.131 19.8258 198.894 19.6398 198.708C19.4538 198.516 19.2288 198.375 18.9648 198.285C18.7068 198.189 18.4218 198.141 18.1098 198.141C17.8938 198.141 17.6808 198.159 17.4708 198.195C17.2608 198.231 17.0418 198.291 16.8138 198.375C16.5918 198.459 16.3548 198.573 16.1028 198.717C15.8568 198.861 15.5898 199.044 15.3018 199.266L15.2118 199.212L15.8238 197.943C16.0218 197.853 16.2168 197.781 16.4088 197.727C16.6008 197.667 16.7958 197.619 16.9938 197.583C17.1918 197.547 17.3928 197.523 17.5968 197.511C17.8068 197.493 18.0258 197.484 18.2538 197.484C18.8838 197.484 19.4208 197.562 19.8648 197.718C20.3148 197.868 20.6808 198.078 20.9628 198.348C21.2508 198.612 21.4608 198.924 21.5928 199.284C21.7248 199.638 21.7908 200.019 21.7908 200.427V203.361C21.7908 203.871 21.7968 204.318 21.8088 204.702C21.8268 205.08 21.8448 205.407 21.8628 205.683C21.8868 205.959 21.9138 206.19 21.9438 206.376C21.9798 206.562 22.0158 206.718 22.0518 206.844V206.88H20.0628V206.844C20.0928 206.748 20.1138 206.64 20.1258 206.52C20.1438 206.4 20.1588 206.256 20.1708 206.088C20.0448 206.196 19.8948 206.307 19.7208 206.421C19.5528 206.535 19.3578 206.64 19.1358 206.736C18.9198 206.826 18.6768 206.898 18.4068 206.952C18.1428 207.012 17.8518 207.042 17.5338 207.042C16.4898 207.042 15.6828 206.799 15.1128 206.313C14.5428 205.821 14.2578 205.125 14.2578 204.225ZM20.2248 201.606C19.6788 201.612 19.1538 201.645 18.6498 201.705C18.1458 201.759 17.6988 201.876 17.3088 202.056C16.9248 202.236 16.6158 202.494 16.3818 202.83C16.1538 203.16 16.0398 203.601 16.0398 204.153C16.0398 204.861 16.2168 205.401 16.5708 205.773C16.9248 206.145 17.4138 206.331 18.0378 206.331C18.3258 206.331 18.5868 206.292 18.8208 206.214C19.0608 206.13 19.2708 206.028 19.4508 205.908C19.6368 205.782 19.7928 205.647 19.9188 205.503C20.0448 205.353 20.1408 205.209 20.2068 205.071C20.2188 204.843 20.2248 204.591 20.2248 204.315C20.2248 204.033 20.2248 203.715 20.2248 203.361V201.606ZM25.3091 196.944C25.3091 196.434 25.3001 195.99 25.2821 195.612C25.2701 195.228 25.2521 194.898 25.2281 194.622C25.2101 194.346 25.1831 194.115 25.1471 193.929C25.1171 193.743 25.0841 193.587 25.0481 193.461V193.425H27.1271V193.461C27.0911 193.587 27.0581 193.743 27.0281 193.929C26.9981 194.115 26.9711 194.346 26.9471 194.622C26.9231 194.898 26.9051 195.228 26.8931 195.612C26.8811 195.99 26.8751 196.434 26.8751 196.944V203.361C26.8751 203.871 26.8811 204.318 26.8931 204.702C26.9051 205.08 26.9231 205.407 26.9471 205.683C26.9711 205.959 26.9981 206.19 27.0281 206.376C27.0581 206.562 27.0911 206.718 27.1271 206.844V206.88H25.0481V206.844C25.0841 206.718 25.1171 206.562 25.1471 206.376C25.1831 206.19 25.2101 205.959 25.2281 205.683C25.2521 205.407 25.2701 205.08 25.2821 204.702C25.3001 204.318 25.3091 203.871 25.3091 203.361V196.944ZM30.4924 201.183C30.4924 200.673 30.4834 200.229 30.4654 199.851C30.4534 199.467 30.4354 199.137 30.4114 198.861C30.3934 198.585 30.3664 198.354 30.3304 198.168C30.3004 197.982 30.2674 197.826 30.2314 197.7V197.664H32.3104V197.7C32.2744 197.826 32.2414 197.982 32.2114 198.168C32.1814 198.354 32.1544 198.585 32.1304 198.861C32.1064 199.137 32.0884 199.467 32.0764 199.851C32.0644 200.229 32.0584 200.673 32.0584 201.183V203.361C32.0584 203.871 32.0644 204.318 32.0764 204.702C32.0884 205.08 32.1064 205.407 32.1304 205.683C32.1544 205.959 32.1814 206.19 32.2114 206.376C32.2414 206.562 32.2744 206.718 32.3104 206.844V206.88H30.2314V206.844C30.2674 206.718 30.3004 206.562 30.3304 206.376C30.3664 206.19 30.3934 205.959 30.4114 205.683C30.4354 205.407 30.4534 205.08 30.4654 204.702C30.4834 204.318 30.4924 203.871 30.4924 203.361V201.183ZM30.3034 194.937C30.3034 194.805 30.3274 194.682 30.3754 194.568C30.4294 194.448 30.4984 194.346 30.5824 194.262C30.6664 194.172 30.7654 194.103 30.8794 194.055C30.9994 194.001 31.1284 193.974 31.2664 193.974C31.4044 193.974 31.5304 194.001 31.6444 194.055C31.7644 194.103 31.8664 194.172 31.9504 194.262C32.0404 194.346 32.1094 194.448 32.1574 194.568C32.2114 194.682 32.2384 194.805 32.2384 194.937C32.2384 195.213 32.1454 195.444 31.9594 195.63C31.7734 195.816 31.5424 195.909 31.2664 195.909C31.1284 195.909 30.9994 195.885 30.8794 195.837C30.7654 195.783 30.6664 195.714 30.5824 195.63C30.4984 195.54 30.4294 195.438 30.3754 195.324C30.3274 195.204 30.3034 195.075 30.3034 194.937ZM39.7257 197.502C39.9717 197.502 40.2177 197.523 40.4637 197.565C40.7097 197.607 40.9497 197.667 41.1837 197.745C41.4177 197.823 41.6397 197.919 41.8497 198.033C42.0597 198.147 42.2487 198.276 42.4167 198.42V196.944C42.4167 196.434 42.4107 195.99 42.3987 195.612C42.3867 195.228 42.3687 194.898 42.3447 194.622C42.3207 194.346 42.2937 194.115 42.2637 193.929C42.2337 193.743 42.2007 193.587 42.1647 193.461V193.425H44.2437V193.461C44.2077 193.587 44.1717 193.743 44.1357 193.929C44.1057 194.115 44.0787 194.346 44.0547 194.622C44.0367 194.898 44.0187 195.228 44.0007 195.612C43.9887 195.99 43.9827 196.434 43.9827 196.944V203.361C43.9827 203.871 43.9887 204.318 44.0007 204.702C44.0187 205.08 44.0367 205.407 44.0547 205.683C44.0787 205.959 44.1057 206.19 44.1357 206.376C44.1717 206.562 44.2077 206.718 44.2437 206.844V206.88H42.2547V206.844C42.2727 206.796 42.2877 206.727 42.2997 206.637C42.3117 206.541 42.3267 206.424 42.3447 206.286C42.0387 206.478 41.6547 206.652 41.1927 206.808C40.7307 206.964 40.1937 207.042 39.5817 207.042C38.8677 207.042 38.2197 206.931 37.6377 206.709C37.0557 206.487 36.5577 206.169 36.1437 205.755C35.7357 205.341 35.4207 204.84 35.1987 204.252C34.9767 203.658 34.8657 202.992 34.8657 202.254C34.8657 201.576 34.9857 200.949 35.2257 200.373C35.4657 199.791 35.8017 199.287 36.2337 198.861C36.6657 198.435 37.1787 198.102 37.7727 197.862C38.3667 197.622 39.0177 197.502 39.7257 197.502ZM42.4167 200.004C42.1767 199.374 41.8317 198.909 41.3817 198.609C40.9377 198.309 40.4367 198.159 39.8787 198.159C39.4107 198.159 38.9787 198.243 38.5827 198.411C38.1867 198.573 37.8477 198.81 37.5657 199.122C37.2837 199.434 37.0617 199.818 36.8997 200.274C36.7437 200.724 36.6657 201.237 36.6657 201.813C36.6657 202.461 36.7377 203.064 36.8817 203.622C37.0257 204.18 37.2357 204.666 37.5117 205.08C37.7937 205.488 38.1417 205.809 38.5557 206.043C38.9697 206.271 39.4467 206.385 39.9867 206.385C40.2687 206.385 40.5327 206.352 40.7787 206.286C41.0247 206.22 41.2497 206.136 41.4537 206.034C41.6577 205.932 41.8377 205.821 41.9937 205.701C42.1497 205.575 42.2787 205.452 42.3807 205.332C42.3927 205.074 42.4017 204.78 42.4077 204.45C42.4137 204.12 42.4167 203.757 42.4167 203.361V200.004ZM46.7809 204.225C46.7809 203.751 46.8769 203.34 47.0689 202.992C47.2669 202.644 47.5279 202.347 47.8519 202.101C48.1759 201.855 48.5449 201.657 48.9589 201.507C49.3729 201.351 49.8019 201.231 50.2459 201.147C50.6899 201.057 51.1279 200.997 51.5599 200.967C51.9919 200.931 52.3879 200.91 52.7479 200.904V200.445C52.7479 200.049 52.6969 199.707 52.5949 199.419C52.4929 199.131 52.3489 198.894 52.1629 198.708C51.9769 198.516 51.7519 198.375 51.4879 198.285C51.2299 198.189 50.9449 198.141 50.6329 198.141C50.4169 198.141 50.2039 198.159 49.9939 198.195C49.7839 198.231 49.5649 198.291 49.3369 198.375C49.1149 198.459 48.8779 198.573 48.6259 198.717C48.3799 198.861 48.1129 199.044 47.8249 199.266L47.7349 199.212L48.3469 197.943C48.5449 197.853 48.7399 197.781 48.9319 197.727C49.1239 197.667 49.3189 197.619 49.5169 197.583C49.7149 197.547 49.9159 197.523 50.1199 197.511C50.3299 197.493 50.5489 197.484 50.7769 197.484C51.4069 197.484 51.9439 197.562 52.3879 197.718C52.8379 197.868 53.2039 198.078 53.4859 198.348C53.7739 198.612 53.9839 198.924 54.1159 199.284C54.2479 199.638 54.3139 200.019 54.3139 200.427V203.361C54.3139 203.871 54.3199 204.318 54.3319 204.702C54.3499 205.08 54.3679 205.407 54.3859 205.683C54.4099 205.959 54.4369 206.19 54.4669 206.376C54.5029 206.562 54.5389 206.718 54.5749 206.844V206.88H52.5859V206.844C52.6159 206.748 52.6369 206.64 52.6489 206.52C52.6669 206.4 52.6819 206.256 52.6939 206.088C52.5679 206.196 52.4179 206.307 52.2439 206.421C52.0759 206.535 51.8809 206.64 51.6589 206.736C51.4429 206.826 51.1999 206.898 50.9299 206.952C50.6659 207.012 50.3749 207.042 50.0569 207.042C49.0129 207.042 48.2059 206.799 47.6359 206.313C47.0659 205.821 46.7809 205.125 46.7809 204.225ZM52.7479 201.606C52.2019 201.612 51.6769 201.645 51.1729 201.705C50.6689 201.759 50.2219 201.876 49.8319 202.056C49.4479 202.236 49.1389 202.494 48.9049 202.83C48.6769 203.16 48.5629 203.601 48.5629 204.153C48.5629 204.861 48.7399 205.401 49.0939 205.773C49.4479 206.145 49.9369 206.331 50.5609 206.331C50.8489 206.331 51.1099 206.292 51.3439 206.214C51.5839 206.13 51.7939 206.028 51.9739 205.908C52.1599 205.782 52.3159 205.647 52.4419 205.503C52.5679 205.353 52.6639 205.209 52.7299 205.071C52.7419 204.843 52.7479 204.591 52.7479 204.315C52.7479 204.033 52.7479 203.715 52.7479 203.361V201.606ZM61.0362 206.349C61.2162 206.349 61.3932 206.316 61.5672 206.25C61.7472 206.184 61.9182 206.094 62.0802 205.98C62.2482 205.866 62.4072 205.737 62.5572 205.593C62.7132 205.443 62.8572 205.287 62.9892 205.125L63.0792 205.17L62.4942 206.619C62.4222 206.655 62.3322 206.7 62.2242 206.754C62.1222 206.802 61.9962 206.847 61.8462 206.889C61.7022 206.937 61.5312 206.976 61.3332 207.006C61.1352 207.042 60.9012 207.06 60.6312 207.06C59.8272 207.06 59.2002 206.844 58.7502 206.412C58.3062 205.974 58.0842 205.293 58.0842 204.369V198.366L56.5722 198.42V197.628C56.7582 197.64 56.9802 197.649 57.2382 197.655C57.4962 197.661 57.7782 197.664 58.0842 197.664C58.0782 197.238 58.0662 196.863 58.0482 196.539C58.0362 196.209 58.0182 195.924 57.9942 195.684C57.9762 195.438 57.9522 195.231 57.9222 195.063C57.8922 194.895 57.8622 194.754 57.8322 194.64V194.604H59.9112V194.64C59.8752 194.754 59.8422 194.895 59.8122 195.063C59.7822 195.231 59.7552 195.435 59.7312 195.675C59.7132 195.915 59.6952 196.2 59.6772 196.53C59.6652 196.854 59.6562 197.232 59.6502 197.664C60.0282 197.658 60.3972 197.652 60.7572 197.646C61.1232 197.634 61.4532 197.622 61.7472 197.61C62.0472 197.592 62.2992 197.577 62.5032 197.565C62.7132 197.547 62.8512 197.532 62.9172 197.52L62.7552 198.438C62.4492 198.432 62.1282 198.423 61.7922 198.411C61.5042 198.399 61.1742 198.39 60.8022 198.384C60.4302 198.378 60.0462 198.372 59.6502 198.366V204.558C59.6502 204.93 59.6892 205.233 59.7672 205.467C59.8512 205.695 59.9562 205.875 60.0822 206.007C60.2142 206.139 60.3612 206.229 60.5232 206.277C60.6912 206.325 60.8622 206.349 61.0362 206.349ZM69.6215 207.042C68.9555 207.042 68.3315 206.937 67.7495 206.727C67.1675 206.517 66.6605 206.211 66.2285 205.809C65.7965 205.401 65.4545 204.9 65.2025 204.306C64.9565 203.706 64.8335 203.022 64.8335 202.254C64.8335 201.576 64.9475 200.949 65.1755 200.373C65.4035 199.791 65.7185 199.287 66.1205 198.861C66.5225 198.435 66.9905 198.102 67.5245 197.862C68.0645 197.622 68.6465 197.502 69.2705 197.502C69.8885 197.502 70.4615 197.61 70.9895 197.826C71.5175 198.036 71.9735 198.345 72.3575 198.753C72.7475 199.155 73.0535 199.656 73.2755 200.256C73.5035 200.85 73.6265 201.528 73.6445 202.29C72.9665 202.278 72.2885 202.269 71.6105 202.263C70.9325 202.257 70.2275 202.254 69.4955 202.254C68.9735 202.254 68.4635 202.257 67.9655 202.263C67.4735 202.269 67.0295 202.278 66.6335 202.29C66.6695 202.914 66.7655 203.478 66.9215 203.982C67.0835 204.486 67.3025 204.918 67.5785 205.278C67.8605 205.632 68.1995 205.905 68.5955 206.097C68.9975 206.289 69.4505 206.385 69.9545 206.385C70.3025 206.385 70.6295 206.346 70.9355 206.268C71.2475 206.184 71.5295 206.07 71.7815 205.926C72.0335 205.782 72.2585 205.614 72.4565 205.422C72.6545 205.224 72.8225 205.011 72.9605 204.783L73.0685 204.837L72.4025 206.439C72.0785 206.607 71.6915 206.751 71.2415 206.871C70.7915 206.985 70.2515 207.042 69.6215 207.042ZM68.4245 201.552C69.0245 201.552 69.6245 201.552 70.2245 201.552C70.8305 201.546 71.3795 201.534 71.8715 201.516C71.8175 200.994 71.7155 200.526 71.5655 200.112C71.4155 199.698 71.2235 199.347 70.9895 199.059C70.7555 198.771 70.4795 198.549 70.1615 198.393C69.8435 198.237 69.4925 198.159 69.1085 198.159C68.7605 198.159 68.4395 198.237 68.1455 198.393C67.8575 198.543 67.6055 198.762 67.3895 199.05C67.1735 199.338 66.9995 199.692 66.8675 200.112C66.7355 200.526 66.6575 201 66.6335 201.534C66.9035 201.546 67.1885 201.552 67.4885 201.552C67.7885 201.552 68.1005 201.552 68.4245 201.552Z" fill="#87839A"/>
<path d="M90.7421 326.157C90.9221 326.157 91.0991 326.124 91.2731 326.058C91.4531 325.992 91.6241 325.902 91.7861 325.788C91.9541 325.674 92.1131 325.545 92.2631 325.401C92.4191 325.251 92.5631 325.095 92.6951 324.933L92.7851 324.978L92.2001 326.427C92.1281 326.463 92.0381 326.508 91.9301 326.562C91.8281 326.61 91.7021 326.655 91.5521 326.697C91.4081 326.745 91.2371 326.784 91.0391 326.814C90.8411 326.85 90.6071 326.868 90.3371 326.868C89.5331 326.868 88.9061 326.652 88.4561 326.22C88.0121 325.782 87.7901 325.101 87.7901 324.177V318.174L86.2781 318.228V317.436C86.4641 317.448 86.6861 317.457 86.9441 317.463C87.2021 317.469 87.4841 317.472 87.7901 317.472C87.7841 317.046 87.7721 316.671 87.7541 316.347C87.7421 316.017 87.7241 315.732 87.7001 315.492C87.6821 315.246 87.6581 315.039 87.6281 314.871C87.5981 314.703 87.5681 314.562 87.5381 314.448V314.412H89.6171V314.448C89.5811 314.562 89.5481 314.703 89.5181 314.871C89.4881 315.039 89.4611 315.243 89.4371 315.483C89.4191 315.723 89.4011 316.008 89.3831 316.338C89.3711 316.662 89.3621 317.04 89.3561 317.472C89.7341 317.466 90.1031 317.46 90.4631 317.454C90.8291 317.442 91.1591 317.43 91.4531 317.418C91.7531 317.4 92.0051 317.385 92.2091 317.373C92.4191 317.355 92.5571 317.34 92.6231 317.328L92.4611 318.246C92.1551 318.24 91.8341 318.231 91.4981 318.219C91.2101 318.207 90.8801 318.198 90.5081 318.192C90.1361 318.186 89.7521 318.18 89.3561 318.174V324.366C89.3561 324.738 89.3951 325.041 89.4731 325.275C89.5571 325.503 89.6621 325.683 89.7881 325.815C89.9201 325.947 90.0671 326.037 90.2291 326.085C90.3971 326.133 90.5681 326.157 90.7421 326.157ZM99.3274 326.85C98.6614 326.85 98.0374 326.745 97.4554 326.535C96.8734 326.325 96.3664 326.019 95.9344 325.617C95.5024 325.209 95.1604 324.708 94.9084 324.114C94.6624 323.514 94.5394 322.83 94.5394 322.062C94.5394 321.384 94.6534 320.757 94.8814 320.181C95.1094 319.599 95.4244 319.095 95.8264 318.669C96.2284 318.243 96.6964 317.91 97.2304 317.67C97.7704 317.43 98.3524 317.31 98.9764 317.31C99.5944 317.31 100.167 317.418 100.695 317.634C101.223 317.844 101.679 318.153 102.063 318.561C102.453 318.963 102.759 319.464 102.981 320.064C103.209 320.658 103.332 321.336 103.35 322.098C102.672 322.086 101.994 322.077 101.316 322.071C100.638 322.065 99.9334 322.062 99.2014 322.062C98.6794 322.062 98.1694 322.065 97.6714 322.071C97.1794 322.077 96.7354 322.086 96.3394 322.098C96.3754 322.722 96.4714 323.286 96.6274 323.79C96.7894 324.294 97.0084 324.726 97.2844 325.086C97.5664 325.44 97.9054 325.713 98.3014 325.905C98.7034 326.097 99.1564 326.193 99.6604 326.193C100.008 326.193 100.335 326.154 100.641 326.076C100.953 325.992 101.235 325.878 101.487 325.734C101.739 325.59 101.964 325.422 102.162 325.23C102.36 325.032 102.528 324.819 102.666 324.591L102.774 324.645L102.108 326.247C101.784 326.415 101.397 326.559 100.947 326.679C100.497 326.793 99.9574 326.85 99.3274 326.85ZM98.1304 321.36C98.7304 321.36 99.3304 321.36 99.9304 321.36C100.536 321.354 101.085 321.342 101.577 321.324C101.523 320.802 101.421 320.334 101.271 319.92C101.121 319.506 100.929 319.155 100.695 318.867C100.461 318.579 100.185 318.357 99.8674 318.201C99.5494 318.045 99.1984 317.967 98.8144 317.967C98.4664 317.967 98.1454 318.045 97.8514 318.201C97.5634 318.351 97.3114 318.57 97.0954 318.858C96.8794 319.146 96.7054 319.5 96.5734 319.92C96.4414 320.334 96.3634 320.808 96.3394 321.342C96.6094 321.354 96.8944 321.36 97.1944 321.36C97.4944 321.36 97.8064 321.36 98.1304 321.36ZM110.091 319.281L109.965 319.299C109.923 319.161 109.854 319.014 109.758 318.858C109.668 318.702 109.548 318.558 109.398 318.426C109.254 318.294 109.077 318.186 108.867 318.102C108.663 318.012 108.426 317.967 108.156 317.967C107.97 317.967 107.793 317.994 107.625 318.048C107.463 318.102 107.319 318.183 107.193 318.291C107.073 318.393 106.977 318.522 106.905 318.678C106.833 318.834 106.797 319.017 106.797 319.227C106.797 319.521 106.887 319.803 107.067 320.073C107.253 320.337 107.484 320.601 107.76 320.865C108.036 321.123 108.333 321.384 108.651 321.648C108.975 321.912 109.275 322.188 109.551 322.476C109.827 322.764 110.055 323.073 110.235 323.403C110.421 323.727 110.514 324.078 110.514 324.456C110.514 324.762 110.46 325.062 110.352 325.356C110.244 325.644 110.076 325.902 109.848 326.13C109.626 326.358 109.338 326.544 108.984 326.688C108.636 326.826 108.219 326.895 107.733 326.895C107.445 326.895 107.175 326.868 106.923 326.814C106.677 326.76 106.449 326.694 106.239 326.616C106.035 326.532 105.849 326.442 105.681 326.346C105.519 326.244 105.375 326.148 105.249 326.058L105.339 324.348H105.483C105.543 324.63 105.633 324.888 105.753 325.122C105.873 325.356 106.02 325.557 106.194 325.725C106.374 325.887 106.578 326.016 106.806 326.112C107.034 326.202 107.283 326.247 107.553 326.247C107.997 326.247 108.348 326.124 108.606 325.878C108.87 325.632 109.002 325.311 109.002 324.915C109.002 324.597 108.912 324.306 108.732 324.042C108.558 323.772 108.336 323.514 108.066 323.268C107.796 323.022 107.505 322.776 107.193 322.53C106.887 322.284 106.599 322.023 106.329 321.747C106.059 321.465 105.834 321.159 105.654 320.829C105.48 320.493 105.393 320.112 105.393 319.686C105.393 319.338 105.456 319.02 105.582 318.732C105.714 318.438 105.894 318.189 106.122 317.985C106.356 317.775 106.632 317.613 106.95 317.499C107.268 317.385 107.616 317.328 107.994 317.328C108.492 317.328 108.906 317.382 109.236 317.49C109.572 317.592 109.827 317.691 110.001 317.787L110.091 319.281ZM116.552 326.157C116.732 326.157 116.909 326.124 117.083 326.058C117.263 325.992 117.434 325.902 117.596 325.788C117.764 325.674 117.923 325.545 118.073 325.401C118.229 325.251 118.373 325.095 118.505 324.933L118.595 324.978L118.01 326.427C117.938 326.463 117.848 326.508 117.74 326.562C117.638 326.61 117.512 326.655 117.362 326.697C117.218 326.745 117.047 326.784 116.849 326.814C116.651 326.85 116.417 326.868 116.147 326.868C115.343 326.868 114.716 326.652 114.266 326.22C113.822 325.782 113.6 325.101 113.6 324.177V318.174L112.088 318.228V317.436C112.274 317.448 112.496 317.457 112.754 317.463C113.012 317.469 113.294 317.472 113.6 317.472C113.594 317.046 113.582 316.671 113.564 316.347C113.552 316.017 113.534 315.732 113.51 315.492C113.492 315.246 113.468 315.039 113.438 314.871C113.408 314.703 113.378 314.562 113.348 314.448V314.412H115.427V314.448C115.391 314.562 115.358 314.703 115.328 314.871C115.298 315.039 115.271 315.243 115.247 315.483C115.229 315.723 115.211 316.008 115.193 316.338C115.181 316.662 115.172 317.04 115.166 317.472C115.544 317.466 115.913 317.46 116.273 317.454C116.639 317.442 116.969 317.43 117.263 317.418C117.563 317.4 117.815 317.385 118.019 317.373C118.229 317.355 118.367 317.34 118.433 317.328L118.271 318.246C117.965 318.24 117.644 318.231 117.308 318.219C117.02 318.207 116.69 318.198 116.318 318.192C115.946 318.186 115.562 318.18 115.166 318.174V324.366C115.166 324.738 115.205 325.041 115.283 325.275C115.367 325.503 115.472 325.683 115.598 325.815C115.73 325.947 115.877 326.037 116.039 326.085C116.207 326.133 116.378 326.157 116.552 326.157Z" fill="#87839A"/>
<path d="M709.688 77.6939C709.934 77.6939 710.18 77.7149 710.426 77.7569C710.672 77.7989 710.912 77.8589 711.146 77.9369C711.38 78.0149 711.602 78.1109 711.812 78.2249C712.022 78.3389 712.211 78.4679 712.379 78.6119V77.1359C712.379 76.6259 712.373 76.1819 712.361 75.8039C712.349 75.4199 712.331 75.0899 712.307 74.8139C712.283 74.5379 712.256 74.3069 712.226 74.1209C712.196 73.9349 712.163 73.7789 712.127 73.6529V73.6169H714.206V73.6529C714.17 73.7789 714.134 73.9349 714.098 74.1209C714.068 74.3069 714.041 74.5379 714.017 74.8139C713.999 75.0899 713.981 75.4199 713.963 75.8039C713.951 76.1819 713.945 76.6259 713.945 77.1359V83.5529C713.945 84.0629 713.951 84.5099 713.963 84.8939C713.981 85.2719 713.999 85.5989 714.017 85.8749C714.041 86.1509 714.068 86.3819 714.098 86.5679C714.134 86.7539 714.17 86.9099 714.206 87.0359V87.0719H712.217V87.0359C712.235 86.9879 712.25 86.9189 712.262 86.8289C712.274 86.7329 712.289 86.6159 712.307 86.4779C712.001 86.6699 711.617 86.8439 711.155 86.9999C710.693 87.1559 710.156 87.2339 709.544 87.2339C708.83 87.2339 708.182 87.1229 707.6 86.9009C707.018 86.6789 706.52 86.3609 706.106 85.9469C705.698 85.5329 705.383 85.0319 705.161 84.4439C704.939 83.8499 704.828 83.1839 704.828 82.4459C704.828 81.7679 704.948 81.1409 705.188 80.5649C705.428 79.9829 705.764 79.4789 706.196 79.0529C706.628 78.6269 707.141 78.2939 707.735 78.0539C708.329 77.8139 708.98 77.6939 709.688 77.6939ZM712.379 80.1959C712.139 79.5659 711.794 79.1009 711.344 78.8009C710.9 78.5009 710.399 78.3509 709.841 78.3509C709.373 78.3509 708.941 78.4349 708.545 78.6029C708.149 78.7649 707.81 79.0019 707.528 79.3139C707.246 79.6259 707.024 80.0099 706.862 80.4659C706.706 80.9159 706.628 81.4289 706.628 82.0049C706.628 82.6529 706.7 83.2559 706.844 83.8139C706.988 84.3719 707.198 84.8579 707.474 85.2719C707.756 85.6799 708.104 86.0009 708.518 86.2349C708.932 86.4629 709.409 86.5769 709.949 86.5769C710.231 86.5769 710.495 86.5439 710.741 86.4779C710.987 86.4119 711.212 86.3279 711.416 86.2259C711.62 86.1239 711.8 86.0129 711.956 85.8929C712.112 85.7669 712.241 85.6439 712.343 85.5239C712.355 85.2659 712.364 84.9719 712.37 84.6419C712.376 84.3119 712.379 83.9489 712.379 83.5529V80.1959ZM721.496 87.2339C720.83 87.2339 720.206 87.1289 719.624 86.9189C719.042 86.7089 718.535 86.4029 718.103 86.0009C717.671 85.5929 717.329 85.0919 717.077 84.4979C716.831 83.8979 716.708 83.2139 716.708 82.4459C716.708 81.7679 716.822 81.1409 717.05 80.5649C717.278 79.9829 717.593 79.4789 717.995 79.0529C718.397 78.6269 718.865 78.2939 719.399 78.0539C719.939 77.8139 720.521 77.6939 721.145 77.6939C721.763 77.6939 722.336 77.8019 722.864 78.0179C723.392 78.2279 723.848 78.5369 724.232 78.9449C724.622 79.3469 724.928 79.8479 725.15 80.4479C725.378 81.0419 725.501 81.7199 725.519 82.4819C724.841 82.4699 724.163 82.4609 723.485 82.4549C722.807 82.4489 722.102 82.4459 721.37 82.4459C720.848 82.4459 720.338 82.4489 719.84 82.4549C719.348 82.4609 718.904 82.4699 718.508 82.4819C718.544 83.1059 718.64 83.6699 718.796 84.1739C718.958 84.6779 719.177 85.1099 719.453 85.4699C719.735 85.8239 720.074 86.0969 720.47 86.2889C720.872 86.4809 721.325 86.5769 721.829 86.5769C722.177 86.5769 722.504 86.5379 722.81 86.4599C723.122 86.3759 723.404 86.2619 723.656 86.1179C723.908 85.9739 724.133 85.8059 724.331 85.6139C724.529 85.4159 724.697 85.2029 724.835 84.9749L724.943 85.0289L724.277 86.6309C723.953 86.7989 723.566 86.9429 723.116 87.0629C722.666 87.1769 722.126 87.2339 721.496 87.2339ZM720.299 81.7439C720.899 81.7439 721.499 81.7439 722.099 81.7439C722.705 81.7379 723.254 81.7259 723.746 81.7079C723.692 81.1859 723.59 80.7179 723.44 80.3039C723.29 79.8899 723.098 79.5389 722.864 79.2509C722.63 78.9629 722.354 78.7409 722.036 78.5849C721.718 78.4289 721.367 78.3509 720.983 78.3509C720.635 78.3509 720.314 78.4289 720.02 78.5849C719.732 78.7349 719.48 78.9539 719.264 79.2419C719.048 79.5299 718.874 79.8839 718.742 80.3039C718.61 80.7179 718.532 81.1919 718.508 81.7259C718.778 81.7379 719.063 81.7439 719.363 81.7439C719.663 81.7439 719.975 81.7439 720.299 81.7439ZM733.96 81.3749C733.96 80.7089 733.945 80.1479 733.915 79.6919C733.891 79.2299 733.861 78.8519 733.825 78.5579H730.063V83.5529C730.063 84.0629 730.069 84.5099 730.081 84.8939C730.099 85.2719 730.117 85.5989 730.135 85.8749C730.159 86.1509 730.186 86.3819 730.216 86.5679C730.252 86.7539 730.288 86.9099 730.324 87.0359V87.0719H728.245V87.0359C728.281 86.9099 728.314 86.7539 728.344 86.5679C728.374 86.3819 728.401 86.1509 728.425 85.8749C728.449 85.5989 728.467 85.2719 728.479 84.8939C728.491 84.5099 728.497 84.0629 728.497 83.5529V78.5579L726.985 78.6119V77.8199C727.171 77.8319 727.393 77.8409 727.651 77.8469C727.909 77.8529 728.191 77.8559 728.497 77.8559V76.8209C728.497 76.4009 728.548 76.0259 728.65 75.6959C728.758 75.3659 728.902 75.0779 729.082 74.8319C729.268 74.5859 729.481 74.3759 729.721 74.2019C729.967 74.0279 730.225 73.8869 730.495 73.7789C730.765 73.6709 731.041 73.5929 731.323 73.5449C731.605 73.4969 731.881 73.4729 732.151 73.4729C732.451 73.4729 732.73 73.4849 732.988 73.5089C733.246 73.5329 733.477 73.5629 733.681 73.5989C733.885 73.6349 734.059 73.6709 734.203 73.7069C734.353 73.7429 734.467 73.7729 734.545 73.7969L734.896 75.3269L734.788 75.3899C734.668 75.2399 734.524 75.0929 734.356 74.9489C734.188 74.8049 733.993 74.6759 733.771 74.5619C733.555 74.4419 733.309 74.3459 733.033 74.2739C732.757 74.2019 732.451 74.1659 732.115 74.1659C731.965 74.1659 731.773 74.1899 731.539 74.2379C731.311 74.2859 731.086 74.3939 730.864 74.5619C730.648 74.7239 730.459 74.9699 730.297 75.2999C730.141 75.6239 730.063 76.0649 730.063 76.6229V77.8559C730.885 77.8499 731.632 77.8439 732.304 77.8379C732.976 77.8259 733.558 77.8139 734.05 77.8019C734.548 77.7899 734.944 77.7779 735.238 77.7659C735.538 77.7479 735.724 77.7299 735.796 77.7119C735.736 78.0179 735.688 78.3089 735.652 78.5849C735.616 78.8609 735.589 79.1429 735.571 79.4309C735.553 79.7189 735.541 80.0219 735.535 80.3399C735.529 80.6519 735.526 80.9969 735.526 81.3749V83.5529C735.526 84.0629 735.532 84.5099 735.544 84.8939C735.556 85.2719 735.574 85.5989 735.598 85.8749C735.622 86.1509 735.649 86.3819 735.679 86.5679C735.709 86.7539 735.742 86.9099 735.778 87.0359V87.0719H733.699V87.0359C733.735 86.9099 733.768 86.7539 733.798 86.5679C733.834 86.3819 733.861 86.1509 733.879 85.8749C733.903 85.5989 733.921 85.2719 733.933 84.8939C733.951 84.5099 733.96 84.0629 733.96 83.5529V81.3749ZM745.272 81.0059C745.272 80.2139 745.113 79.6319 744.795 79.2599C744.477 78.8879 744.051 78.7019 743.517 78.7019C743.325 78.7019 743.109 78.7439 742.869 78.8279C742.629 78.9059 742.383 79.0139 742.131 79.1519C741.879 79.2839 741.627 79.4399 741.375 79.6199C741.123 79.7999 740.886 79.9919 740.664 80.1959L740.646 81.3749V83.5529C740.646 84.0629 740.652 84.5099 740.664 84.8939C740.676 85.2719 740.694 85.5989 740.718 85.8749C740.742 86.1509 740.769 86.3819 740.799 86.5679C740.829 86.7539 740.862 86.9099 740.898 87.0359V87.0719H738.819V87.0359C738.855 86.9099 738.888 86.7539 738.918 86.5679C738.954 86.3819 738.981 86.1509 738.999 85.8749C739.023 85.5989 739.041 85.2719 739.053 84.8939C739.071 84.5099 739.08 84.0629 739.08 83.5529V81.3749C739.08 80.8649 739.071 80.4209 739.053 80.0429C739.041 79.6589 739.023 79.3289 738.999 79.0529C738.981 78.7769 738.954 78.5459 738.918 78.3599C738.888 78.1739 738.855 78.0179 738.819 77.8919V77.8559H740.898V77.8919C740.85 78.0419 740.811 78.2339 740.781 78.4679C740.757 78.6959 740.73 78.9959 740.7 79.3679C740.946 79.1639 741.21 78.9599 741.492 78.7559C741.78 78.5519 742.077 78.3719 742.383 78.2159C742.689 78.0539 743.001 77.9249 743.319 77.8289C743.637 77.7269 743.949 77.6759 744.255 77.6759C744.723 77.6759 745.119 77.7569 745.443 77.9189C745.773 78.0809 746.04 78.2939 746.244 78.5579C746.454 78.8219 746.604 79.1249 746.694 79.4669C746.79 79.8029 746.838 80.1449 746.838 80.4929V83.5529C746.838 84.0629 746.844 84.5099 746.856 84.8939C746.868 85.2719 746.886 85.5989 746.91 85.8749C746.934 86.1509 746.961 86.3819 746.991 86.5679C747.021 86.7539 747.054 86.9099 747.09 87.0359V87.0719H745.011V87.0359C745.047 86.9099 745.08 86.7539 745.11 86.5679C745.146 86.3819 745.173 86.1509 745.191 85.8749C745.215 85.5989 745.233 85.2719 745.245 84.8939C745.263 84.5099 745.272 84.0629 745.272 83.5529V81.0059ZM754.326 87.2339C753.66 87.2339 753.036 87.1289 752.454 86.9189C751.872 86.7089 751.365 86.4029 750.933 86.0009C750.501 85.5929 750.159 85.0919 749.907 84.4979C749.661 83.8979 749.538 83.2139 749.538 82.4459C749.538 81.7679 749.652 81.1409 749.88 80.5649C750.108 79.9829 750.423 79.4789 750.825 79.0529C751.227 78.6269 751.695 78.2939 752.229 78.0539C752.769 77.8139 753.351 77.6939 753.975 77.6939C754.593 77.6939 755.166 77.8019 755.694 78.0179C756.222 78.2279 756.678 78.5369 757.062 78.9449C757.452 79.3469 757.758 79.8479 757.98 80.4479C758.208 81.0419 758.331 81.7199 758.349 82.4819C757.671 82.4699 756.993 82.4609 756.315 82.4549C755.637 82.4489 754.932 82.4459 754.2 82.4459C753.678 82.4459 753.168 82.4489 752.67 82.4549C752.178 82.4609 751.734 82.4699 751.338 82.4819C751.374 83.1059 751.47 83.6699 751.626 84.1739C751.788 84.6779 752.007 85.1099 752.283 85.4699C752.565 85.8239 752.904 86.0969 753.3 86.2889C753.702 86.4809 754.155 86.5769 754.659 86.5769C755.007 86.5769 755.334 86.5379 755.64 86.4599C755.952 86.3759 756.234 86.2619 756.486 86.1179C756.738 85.9739 756.963 85.8059 757.161 85.6139C757.359 85.4159 757.527 85.2029 757.665 84.9749L757.773 85.0289L757.107 86.6309C756.783 86.7989 756.396 86.9429 755.946 87.0629C755.496 87.1769 754.956 87.2339 754.326 87.2339ZM753.129 81.7439C753.729 81.7439 754.329 81.7439 754.929 81.7439C755.535 81.7379 756.084 81.7259 756.576 81.7079C756.522 81.1859 756.42 80.7179 756.27 80.3039C756.12 79.8899 755.928 79.5389 755.694 79.2509C755.46 78.9629 755.184 78.7409 754.866 78.5849C754.548 78.4289 754.197 78.3509 753.813 78.3509C753.465 78.3509 753.144 78.4289 752.85 78.5849C752.562 78.7349 752.31 78.9539 752.094 79.2419C751.878 79.5299 751.704 79.8839 751.572 80.3039C751.44 80.7179 751.362 81.1919 751.338 81.7259C751.608 81.7379 751.893 81.7439 752.193 81.7439C752.493 81.7439 752.805 81.7439 753.129 81.7439Z" fill="#1B232E"/>
<path d="M762.922 201.183C762.922 200.673 762.913 200.229 762.895 199.851C762.883 199.467 762.865 199.137 762.841 198.861C762.823 198.585 762.796 198.354 762.76 198.168C762.73 197.982 762.697 197.826 762.661 197.7V197.664H764.74V197.7C764.704 197.826 764.671 197.982 764.641 198.168C764.611 198.354 764.584 198.585 764.56 198.861C764.536 199.137 764.518 199.467 764.506 199.851C764.494 200.229 764.488 200.673 764.488 201.183V203.361C764.488 203.871 764.494 204.318 764.506 204.702C764.518 205.08 764.536 205.407 764.56 205.683C764.584 205.959 764.611 206.19 764.641 206.376C764.671 206.562 764.704 206.718 764.74 206.844V206.88H762.661V206.844C762.697 206.718 762.73 206.562 762.76 206.376C762.796 206.19 762.823 205.959 762.841 205.683C762.865 205.407 762.883 205.08 762.895 204.702C762.913 204.318 762.922 203.871 762.922 203.361V201.183ZM762.733 194.937C762.733 194.805 762.757 194.682 762.805 194.568C762.859 194.448 762.928 194.346 763.012 194.262C763.096 194.172 763.195 194.103 763.309 194.055C763.429 194.001 763.558 193.974 763.696 193.974C763.834 193.974 763.96 194.001 764.074 194.055C764.194 194.103 764.296 194.172 764.38 194.262C764.47 194.346 764.539 194.448 764.587 194.568C764.641 194.682 764.668 194.805 764.668 194.937C764.668 195.213 764.575 195.444 764.389 195.63C764.203 195.816 763.972 195.909 763.696 195.909C763.558 195.909 763.429 195.885 763.309 195.837C763.195 195.783 763.096 195.714 763.012 195.63C762.928 195.54 762.859 195.438 762.805 195.324C762.757 195.204 762.733 195.075 762.733 194.937ZM772.155 197.502C772.401 197.502 772.647 197.523 772.893 197.565C773.139 197.607 773.379 197.667 773.613 197.745C773.847 197.823 774.069 197.919 774.279 198.033C774.489 198.147 774.678 198.276 774.846 198.42V196.944C774.846 196.434 774.84 195.99 774.828 195.612C774.816 195.228 774.798 194.898 774.774 194.622C774.75 194.346 774.723 194.115 774.693 193.929C774.663 193.743 774.63 193.587 774.594 193.461V193.425H776.673V193.461C776.637 193.587 776.601 193.743 776.565 193.929C776.535 194.115 776.508 194.346 776.484 194.622C776.466 194.898 776.448 195.228 776.43 195.612C776.418 195.99 776.412 196.434 776.412 196.944V203.361C776.412 203.871 776.418 204.318 776.43 204.702C776.448 205.08 776.466 205.407 776.484 205.683C776.508 205.959 776.535 206.19 776.565 206.376C776.601 206.562 776.637 206.718 776.673 206.844V206.88H774.684V206.844C774.702 206.796 774.717 206.727 774.729 206.637C774.741 206.541 774.756 206.424 774.774 206.286C774.468 206.478 774.084 206.652 773.622 206.808C773.16 206.964 772.623 207.042 772.011 207.042C771.297 207.042 770.649 206.931 770.067 206.709C769.485 206.487 768.987 206.169 768.573 205.755C768.165 205.341 767.85 204.84 767.628 204.252C767.406 203.658 767.295 202.992 767.295 202.254C767.295 201.576 767.415 200.949 767.655 200.373C767.895 199.791 768.231 199.287 768.663 198.861C769.095 198.435 769.608 198.102 770.202 197.862C770.796 197.622 771.447 197.502 772.155 197.502ZM774.846 200.004C774.606 199.374 774.261 198.909 773.811 198.609C773.367 198.309 772.866 198.159 772.308 198.159C771.84 198.159 771.408 198.243 771.012 198.411C770.616 198.573 770.277 198.81 769.995 199.122C769.713 199.434 769.491 199.818 769.329 200.274C769.173 200.724 769.095 201.237 769.095 201.813C769.095 202.461 769.167 203.064 769.311 203.622C769.455 204.18 769.665 204.666 769.941 205.08C770.223 205.488 770.571 205.809 770.985 206.043C771.399 206.271 771.876 206.385 772.416 206.385C772.698 206.385 772.962 206.352 773.208 206.286C773.454 206.22 773.679 206.136 773.883 206.034C774.087 205.932 774.267 205.821 774.423 205.701C774.579 205.575 774.708 205.452 774.81 205.332C774.822 205.074 774.831 204.78 774.837 204.45C774.843 204.12 774.846 203.757 774.846 203.361V200.004ZM783.962 207.042C783.296 207.042 782.672 206.937 782.09 206.727C781.508 206.517 781.001 206.211 780.569 205.809C780.137 205.401 779.795 204.9 779.543 204.306C779.297 203.706 779.174 203.022 779.174 202.254C779.174 201.576 779.288 200.949 779.516 200.373C779.744 199.791 780.059 199.287 780.461 198.861C780.863 198.435 781.331 198.102 781.865 197.862C782.405 197.622 782.987 197.502 783.611 197.502C784.229 197.502 784.802 197.61 785.33 197.826C785.858 198.036 786.314 198.345 786.698 198.753C787.088 199.155 787.394 199.656 787.616 200.256C787.844 200.85 787.967 201.528 787.985 202.29C787.307 202.278 786.629 202.269 785.951 202.263C785.273 202.257 784.568 202.254 783.836 202.254C783.314 202.254 782.804 202.257 782.306 202.263C781.814 202.269 781.37 202.278 780.974 202.29C781.01 202.914 781.106 203.478 781.262 203.982C781.424 204.486 781.643 204.918 781.919 205.278C782.201 205.632 782.54 205.905 782.936 206.097C783.338 206.289 783.791 206.385 784.295 206.385C784.643 206.385 784.97 206.346 785.276 206.268C785.588 206.184 785.87 206.07 786.122 205.926C786.374 205.782 786.599 205.614 786.797 205.422C786.995 205.224 787.163 205.011 787.301 204.783L787.409 204.837L786.743 206.439C786.419 206.607 786.032 206.751 785.582 206.871C785.132 206.985 784.592 207.042 783.962 207.042ZM782.765 201.552C783.365 201.552 783.965 201.552 784.565 201.552C785.171 201.546 785.72 201.534 786.212 201.516C786.158 200.994 786.056 200.526 785.906 200.112C785.756 199.698 785.564 199.347 785.33 199.059C785.096 198.771 784.82 198.549 784.502 198.393C784.184 198.237 783.833 198.159 783.449 198.159C783.101 198.159 782.78 198.237 782.486 198.393C782.198 198.543 781.946 198.762 781.73 199.05C781.514 199.338 781.34 199.692 781.208 200.112C781.076 200.526 780.998 201 780.974 201.534C781.244 201.546 781.529 201.552 781.829 201.552C782.129 201.552 782.441 201.552 782.765 201.552ZM789.938 204.225C789.938 203.751 790.034 203.34 790.226 202.992C790.424 202.644 790.685 202.347 791.009 202.101C791.333 201.855 791.702 201.657 792.116 201.507C792.53 201.351 792.959 201.231 793.403 201.147C793.847 201.057 794.285 200.997 794.717 200.967C795.149 200.931 795.545 200.91 795.905 200.904V200.445C795.905 200.049 795.854 199.707 795.752 199.419C795.65 199.131 795.506 198.894 795.32 198.708C795.134 198.516 794.909 198.375 794.645 198.285C794.387 198.189 794.102 198.141 793.79 198.141C793.574 198.141 793.361 198.159 793.151 198.195C792.941 198.231 792.722 198.291 792.494 198.375C792.272 198.459 792.035 198.573 791.783 198.717C791.537 198.861 791.27 199.044 790.982 199.266L790.892 199.212L791.504 197.943C791.702 197.853 791.897 197.781 792.089 197.727C792.281 197.667 792.476 197.619 792.674 197.583C792.872 197.547 793.073 197.523 793.277 197.511C793.487 197.493 793.706 197.484 793.934 197.484C794.564 197.484 795.101 197.562 795.545 197.718C795.995 197.868 796.361 198.078 796.643 198.348C796.931 198.612 797.141 198.924 797.273 199.284C797.405 199.638 797.471 200.019 797.471 200.427V203.361C797.471 203.871 797.477 204.318 797.489 204.702C797.507 205.08 797.525 205.407 797.543 205.683C797.567 205.959 797.594 206.19 797.624 206.376C797.66 206.562 797.696 206.718 797.732 206.844V206.88H795.743V206.844C795.773 206.748 795.794 206.64 795.806 206.52C795.824 206.4 795.839 206.256 795.851 206.088C795.725 206.196 795.575 206.307 795.401 206.421C795.233 206.535 795.038 206.64 794.816 206.736C794.6 206.826 794.357 206.898 794.087 206.952C793.823 207.012 793.532 207.042 793.214 207.042C792.17 207.042 791.363 206.799 790.793 206.313C790.223 205.821 789.938 205.125 789.938 204.225ZM795.905 201.606C795.359 201.612 794.834 201.645 794.33 201.705C793.826 201.759 793.379 201.876 792.989 202.056C792.605 202.236 792.296 202.494 792.062 202.83C791.834 203.16 791.72 203.601 791.72 204.153C791.72 204.861 791.897 205.401 792.251 205.773C792.605 206.145 793.094 206.331 793.718 206.331C794.006 206.331 794.267 206.292 794.501 206.214C794.741 206.13 794.951 206.028 795.131 205.908C795.317 205.782 795.473 205.647 795.599 205.503C795.725 205.353 795.821 205.209 795.887 205.071C795.899 204.843 795.905 204.591 795.905 204.315C795.905 204.033 795.905 203.715 795.905 203.361V201.606ZM804.193 206.349C804.373 206.349 804.55 206.316 804.724 206.25C804.904 206.184 805.075 206.094 805.237 205.98C805.405 205.866 805.564 205.737 805.714 205.593C805.87 205.443 806.014 205.287 806.146 205.125L806.236 205.17L805.651 206.619C805.579 206.655 805.489 206.7 805.381 206.754C805.279 206.802 805.153 206.847 805.003 206.889C804.859 206.937 804.688 206.976 804.49 207.006C804.292 207.042 804.058 207.06 803.788 207.06C802.984 207.06 802.357 206.844 801.907 206.412C801.463 205.974 801.241 205.293 801.241 204.369V198.366L799.729 198.42V197.628C799.915 197.64 800.137 197.649 800.395 197.655C800.653 197.661 800.935 197.664 801.241 197.664C801.235 197.238 801.223 196.863 801.205 196.539C801.193 196.209 801.175 195.924 801.151 195.684C801.133 195.438 801.109 195.231 801.079 195.063C801.049 194.895 801.019 194.754 800.989 194.64V194.604H803.068V194.64C803.032 194.754 802.999 194.895 802.969 195.063C802.939 195.231 802.912 195.435 802.888 195.675C802.87 195.915 802.852 196.2 802.834 196.53C802.822 196.854 802.813 197.232 802.807 197.664C803.185 197.658 803.554 197.652 803.914 197.646C804.28 197.634 804.61 197.622 804.904 197.61C805.204 197.592 805.456 197.577 805.66 197.565C805.87 197.547 806.008 197.532 806.074 197.52L805.912 198.438C805.606 198.432 805.285 198.423 804.949 198.411C804.661 198.399 804.331 198.39 803.959 198.384C803.587 198.378 803.203 198.372 802.807 198.366V204.558C802.807 204.93 802.846 205.233 802.924 205.467C803.008 205.695 803.113 205.875 803.239 206.007C803.371 206.139 803.518 206.229 803.68 206.277C803.848 206.325 804.019 206.349 804.193 206.349ZM812.778 207.042C812.112 207.042 811.488 206.937 810.906 206.727C810.324 206.517 809.817 206.211 809.385 205.809C808.953 205.401 808.611 204.9 808.359 204.306C808.113 203.706 807.99 203.022 807.99 202.254C807.99 201.576 808.104 200.949 808.332 200.373C808.56 199.791 808.875 199.287 809.277 198.861C809.679 198.435 810.147 198.102 810.681 197.862C811.221 197.622 811.803 197.502 812.427 197.502C813.045 197.502 813.618 197.61 814.146 197.826C814.674 198.036 815.13 198.345 815.514 198.753C815.904 199.155 816.21 199.656 816.432 200.256C816.66 200.85 816.783 201.528 816.801 202.29C816.123 202.278 815.445 202.269 814.767 202.263C814.089 202.257 813.384 202.254 812.652 202.254C812.13 202.254 811.62 202.257 811.122 202.263C810.63 202.269 810.186 202.278 809.79 202.29C809.826 202.914 809.922 203.478 810.078 203.982C810.24 204.486 810.459 204.918 810.735 205.278C811.017 205.632 811.356 205.905 811.752 206.097C812.154 206.289 812.607 206.385 813.111 206.385C813.459 206.385 813.786 206.346 814.092 206.268C814.404 206.184 814.686 206.07 814.938 205.926C815.19 205.782 815.415 205.614 815.613 205.422C815.811 205.224 815.979 205.011 816.117 204.783L816.225 204.837L815.559 206.439C815.235 206.607 814.848 206.751 814.398 206.871C813.948 206.985 813.408 207.042 812.778 207.042ZM811.581 201.552C812.181 201.552 812.781 201.552 813.381 201.552C813.987 201.546 814.536 201.534 815.028 201.516C814.974 200.994 814.872 200.526 814.722 200.112C814.572 199.698 814.38 199.347 814.146 199.059C813.912 198.771 813.636 198.549 813.318 198.393C813 198.237 812.649 198.159 812.265 198.159C811.917 198.159 811.596 198.237 811.302 198.393C811.014 198.543 810.762 198.762 810.546 199.05C810.33 199.338 810.156 199.692 810.024 200.112C809.892 200.526 809.814 201 809.79 201.534C810.06 201.546 810.345 201.552 810.645 201.552C810.945 201.552 811.257 201.552 811.581 201.552Z" fill="#1B232E"/>
<path d="M686.861 320.811C686.861 320.301 686.852 319.857 686.834 319.479C686.822 319.095 686.804 318.765 686.78 318.489C686.762 318.213 686.735 317.982 686.699 317.796C686.669 317.61 686.636 317.454 686.6 317.328V317.292H688.679V317.328C688.649 317.418 688.622 317.52 688.598 317.634C688.574 317.748 688.553 317.877 688.535 318.021C688.889 317.817 689.279 317.646 689.705 317.508C690.137 317.364 690.614 317.292 691.136 317.292C691.802 317.292 692.408 317.406 692.954 317.634C693.506 317.856 693.977 318.177 694.367 318.597C694.763 319.017 695.069 319.524 695.285 320.118C695.501 320.712 695.609 321.378 695.609 322.116C695.609 322.734 695.501 323.328 695.285 323.898C695.075 324.468 694.763 324.972 694.349 325.41C693.941 325.848 693.437 326.199 692.837 326.463C692.237 326.721 691.547 326.85 690.767 326.85C690.299 326.85 689.873 326.814 689.489 326.742C689.105 326.67 688.751 326.577 688.427 326.463V327.777C688.427 328.287 688.433 328.731 688.445 329.109C688.457 329.493 688.475 329.823 688.499 330.099C688.523 330.375 688.55 330.606 688.58 330.792C688.61 330.978 688.643 331.134 688.679 331.26V331.296H686.6V331.26C686.636 331.134 686.669 330.978 686.699 330.792C686.735 330.606 686.762 330.375 686.78 330.099C686.804 329.823 686.822 329.493 686.834 329.109C686.852 328.731 686.861 328.287 686.861 327.777V320.811ZM690.821 317.967C690.617 317.967 690.407 317.994 690.191 318.048C689.981 318.096 689.771 318.168 689.561 318.264C689.357 318.354 689.159 318.471 688.967 318.615C688.781 318.753 688.613 318.912 688.463 319.092C688.451 319.32 688.442 319.578 688.436 319.866C688.43 320.154 688.427 320.469 688.427 320.811V325.527C688.547 325.617 688.682 325.701 688.832 325.779C688.982 325.857 689.15 325.929 689.336 325.995C689.528 326.055 689.741 326.103 689.975 326.139C690.215 326.175 690.479 326.193 690.767 326.193C691.235 326.193 691.658 326.109 692.036 325.941C692.414 325.773 692.732 325.53 692.99 325.212C693.254 324.894 693.455 324.507 693.593 324.051C693.737 323.595 693.809 323.079 693.809 322.503C693.809 321.855 693.755 321.255 693.647 320.703C693.539 320.145 693.365 319.665 693.125 319.263C692.891 318.855 692.585 318.537 692.207 318.309C691.829 318.081 691.367 317.967 690.821 317.967ZM698.362 320.991C698.362 320.481 698.353 320.037 698.335 319.659C698.323 319.275 698.305 318.945 698.281 318.669C698.263 318.393 698.236 318.162 698.2 317.976C698.17 317.79 698.137 317.634 698.101 317.508V317.472H700.18V317.508C700.132 317.646 700.09 317.814 700.054 318.012C700.024 318.21 700 318.465 699.982 318.777C700.204 318.591 700.435 318.408 700.675 318.228C700.915 318.048 701.161 317.889 701.413 317.751C701.665 317.613 701.92 317.502 702.178 317.418C702.442 317.334 702.706 317.292 702.97 317.292C703.132 317.292 703.273 317.301 703.393 317.319C703.513 317.331 703.621 317.352 703.717 317.382C703.813 317.406 703.9 317.436 703.978 317.472C704.056 317.502 704.131 317.532 704.203 317.562L703.762 319.281L703.609 319.245C703.537 318.981 703.402 318.771 703.204 318.615C703.006 318.453 702.736 318.372 702.394 318.372C702.208 318.372 702.013 318.405 701.809 318.471C701.605 318.537 701.398 318.63 701.188 318.75C700.978 318.864 700.768 318.999 700.558 319.155C700.348 319.305 700.144 319.464 699.946 319.632C699.934 319.806 699.928 319.995 699.928 320.199C699.928 320.403 699.928 320.619 699.928 320.847V323.169C699.928 323.679 699.934 324.126 699.946 324.51C699.958 324.888 699.976 325.215 700 325.491C700.024 325.767 700.051 325.998 700.081 326.184C700.111 326.37 700.144 326.526 700.18 326.652V326.688H698.101V326.652C698.137 326.526 698.17 326.37 698.2 326.184C698.236 325.998 698.263 325.767 698.281 325.491C698.305 325.215 698.323 324.888 698.335 324.51C698.353 324.126 698.362 323.679 698.362 323.169V320.991ZM705.58 322.062C705.58 321.384 705.706 320.757 705.958 320.181C706.21 319.599 706.555 319.095 706.993 318.669C707.437 318.243 707.959 317.91 708.559 317.67C709.159 317.43 709.804 317.31 710.494 317.31C711.172 317.31 711.808 317.424 712.402 317.652C713.002 317.874 713.524 318.192 713.968 318.606C714.412 319.02 714.76 319.524 715.012 320.118C715.27 320.712 715.399 321.378 715.399 322.116C715.399 322.734 715.291 323.328 715.075 323.898C714.859 324.468 714.541 324.972 714.121 325.41C713.701 325.848 713.185 326.199 712.573 326.463C711.967 326.721 711.268 326.85 710.476 326.85C709.804 326.85 709.171 326.739 708.577 326.517C707.983 326.295 707.464 325.977 707.02 325.563C706.576 325.149 706.225 324.648 705.967 324.06C705.709 323.466 705.58 322.8 705.58 322.062ZM710.683 326.193C711.109 326.193 711.499 326.109 711.853 325.941C712.213 325.773 712.522 325.53 712.78 325.212C713.038 324.894 713.239 324.507 713.383 324.051C713.527 323.595 713.599 323.079 713.599 322.503C713.599 321.855 713.53 321.255 713.392 320.703C713.254 320.145 713.047 319.665 712.771 319.263C712.501 318.855 712.159 318.537 711.745 318.309C711.331 318.081 710.848 317.967 710.296 317.967C709.87 317.967 709.48 318.051 709.126 318.219C708.772 318.381 708.463 318.618 708.199 318.93C707.941 319.242 707.74 319.626 707.596 320.082C707.452 320.532 707.38 321.045 707.38 321.621C707.38 322.269 707.449 322.872 707.587 323.43C707.731 323.988 707.941 324.474 708.217 324.888C708.493 325.296 708.835 325.617 709.243 325.851C709.657 326.079 710.137 326.193 710.683 326.193ZM721.419 326.157C721.599 326.157 721.776 326.124 721.95 326.058C722.13 325.992 722.301 325.902 722.463 325.788C722.631 325.674 722.79 325.545 722.94 325.401C723.096 325.251 723.24 325.095 723.372 324.933L723.462 324.978L722.877 326.427C722.805 326.463 722.715 326.508 722.607 326.562C722.505 326.61 722.379 326.655 722.229 326.697C722.085 326.745 721.914 326.784 721.716 326.814C721.518 326.85 721.284 326.868 721.014 326.868C720.21 326.868 719.583 326.652 719.133 326.22C718.689 325.782 718.467 325.101 718.467 324.177V318.174L716.955 318.228V317.436C717.141 317.448 717.363 317.457 717.621 317.463C717.879 317.469 718.161 317.472 718.467 317.472C718.461 317.046 718.449 316.671 718.431 316.347C718.419 316.017 718.401 315.732 718.377 315.492C718.359 315.246 718.335 315.039 718.305 314.871C718.275 314.703 718.245 314.562 718.215 314.448V314.412H720.294V314.448C720.258 314.562 720.225 314.703 720.195 314.871C720.165 315.039 720.138 315.243 720.114 315.483C720.096 315.723 720.078 316.008 720.06 316.338C720.048 316.662 720.039 317.04 720.033 317.472C720.411 317.466 720.78 317.46 721.14 317.454C721.506 317.442 721.836 317.43 722.13 317.418C722.43 317.4 722.682 317.385 722.886 317.373C723.096 317.355 723.234 317.34 723.3 317.328L723.138 318.246C722.832 318.24 722.511 318.231 722.175 318.219C721.887 318.207 721.557 318.198 721.185 318.192C720.813 318.186 720.429 318.18 720.033 318.174V324.366C720.033 324.738 720.072 325.041 720.15 325.275C720.234 325.503 720.339 325.683 720.465 325.815C720.597 325.947 720.744 326.037 720.906 326.085C721.074 326.133 721.245 326.157 721.419 326.157ZM725.216 322.062C725.216 321.384 725.342 320.757 725.594 320.181C725.846 319.599 726.191 319.095 726.629 318.669C727.073 318.243 727.595 317.91 728.195 317.67C728.795 317.43 729.44 317.31 730.13 317.31C730.808 317.31 731.444 317.424 732.038 317.652C732.638 317.874 733.16 318.192 733.604 318.606C734.048 319.02 734.396 319.524 734.648 320.118C734.906 320.712 735.035 321.378 735.035 322.116C735.035 322.734 734.927 323.328 734.711 323.898C734.495 324.468 734.177 324.972 733.757 325.41C733.337 325.848 732.821 326.199 732.209 326.463C731.603 326.721 730.904 326.85 730.112 326.85C729.44 326.85 728.807 326.739 728.213 326.517C727.619 326.295 727.1 325.977 726.656 325.563C726.212 325.149 725.861 324.648 725.603 324.06C725.345 323.466 725.216 322.8 725.216 322.062ZM730.319 326.193C730.745 326.193 731.135 326.109 731.489 325.941C731.849 325.773 732.158 325.53 732.416 325.212C732.674 324.894 732.875 324.507 733.019 324.051C733.163 323.595 733.235 323.079 733.235 322.503C733.235 321.855 733.166 321.255 733.028 320.703C732.89 320.145 732.683 319.665 732.407 319.263C732.137 318.855 731.795 318.537 731.381 318.309C730.967 318.081 730.484 317.967 729.932 317.967C729.506 317.967 729.116 318.051 728.762 318.219C728.408 318.381 728.099 318.618 727.835 318.93C727.577 319.242 727.376 319.626 727.232 320.082C727.088 320.532 727.016 321.045 727.016 321.621C727.016 322.269 727.085 322.872 727.223 323.43C727.367 323.988 727.577 324.474 727.853 324.888C728.129 325.296 728.471 325.617 728.879 325.851C729.293 326.079 729.773 326.193 730.319 326.193ZM741.055 326.157C741.235 326.157 741.412 326.124 741.586 326.058C741.766 325.992 741.937 325.902 742.099 325.788C742.267 325.674 742.426 325.545 742.576 325.401C742.732 325.251 742.876 325.095 743.008 324.933L743.098 324.978L742.513 326.427C742.441 326.463 742.351 326.508 742.243 326.562C742.141 326.61 742.015 326.655 741.865 326.697C741.721 326.745 741.55 326.784 741.352 326.814C741.154 326.85 740.92 326.868 740.65 326.868C739.846 326.868 739.219 326.652 738.769 326.22C738.325 325.782 738.103 325.101 738.103 324.177V318.174L736.591 318.228V317.436C736.777 317.448 736.999 317.457 737.257 317.463C737.515 317.469 737.797 317.472 738.103 317.472C738.097 317.046 738.085 316.671 738.067 316.347C738.055 316.017 738.037 315.732 738.013 315.492C737.995 315.246 737.971 315.039 737.941 314.871C737.911 314.703 737.881 314.562 737.851 314.448V314.412H739.93V314.448C739.894 314.562 739.861 314.703 739.831 314.871C739.801 315.039 739.774 315.243 739.75 315.483C739.732 315.723 739.714 316.008 739.696 316.338C739.684 316.662 739.675 317.04 739.669 317.472C740.047 317.466 740.416 317.46 740.776 317.454C741.142 317.442 741.472 317.43 741.766 317.418C742.066 317.4 742.318 317.385 742.522 317.373C742.732 317.355 742.87 317.34 742.936 317.328L742.774 318.246C742.468 318.24 742.147 318.231 741.811 318.219C741.523 318.207 741.193 318.198 740.821 318.192C740.449 318.186 740.065 318.18 739.669 318.174V324.366C739.669 324.738 739.708 325.041 739.786 325.275C739.87 325.503 739.975 325.683 740.101 325.815C740.233 325.947 740.38 326.037 740.542 326.085C740.71 326.133 740.881 326.157 741.055 326.157ZM748.498 326.58L745.33 319.65C745.216 319.386 745.093 319.134 744.961 318.894C744.829 318.648 744.703 318.429 744.583 318.237C744.469 318.045 744.367 317.886 744.277 317.76C744.187 317.628 744.127 317.544 744.097 317.508V317.472H746.455V317.508C746.443 317.538 746.434 317.583 746.428 317.643C746.422 317.703 746.419 317.757 746.419 317.805C746.419 317.991 746.446 318.198 746.5 318.426C746.56 318.648 746.668 318.927 746.824 319.263L749.308 324.663L751.576 319.335C751.672 319.113 751.768 318.87 751.864 318.606C751.966 318.342 752.017 318.075 752.017 317.805C752.017 317.727 752.011 317.664 751.999 317.616C751.987 317.562 751.975 317.526 751.963 317.508V317.472H753.583V317.508C753.475 317.622 753.337 317.826 753.169 318.12C753.007 318.408 752.833 318.771 752.647 319.209L748.354 329.433C748.258 329.655 748.159 329.898 748.057 330.162C747.961 330.426 747.913 330.693 747.913 330.963C747.913 331.041 747.919 331.104 747.931 331.152C747.943 331.206 747.955 331.242 747.967 331.26V331.296H746.284V331.26C746.398 331.146 746.536 330.945 746.698 330.657C746.866 330.375 747.043 330.018 747.229 329.586L748.498 326.58ZM755.58 320.811C755.58 320.301 755.571 319.857 755.553 319.479C755.541 319.095 755.523 318.765 755.499 318.489C755.481 318.213 755.454 317.982 755.418 317.796C755.388 317.61 755.355 317.454 755.319 317.328V317.292H757.398V317.328C757.368 317.418 757.341 317.52 757.317 317.634C757.293 317.748 757.272 317.877 757.254 318.021C757.608 317.817 757.998 317.646 758.424 317.508C758.856 317.364 759.333 317.292 759.855 317.292C760.521 317.292 761.127 317.406 761.673 317.634C762.225 317.856 762.696 318.177 763.086 318.597C763.482 319.017 763.788 319.524 764.004 320.118C764.22 320.712 764.328 321.378 764.328 322.116C764.328 322.734 764.22 323.328 764.004 323.898C763.794 324.468 763.482 324.972 763.068 325.41C762.66 325.848 762.156 326.199 761.556 326.463C760.956 326.721 760.266 326.85 759.486 326.85C759.018 326.85 758.592 326.814 758.208 326.742C757.824 326.67 757.47 326.577 757.146 326.463V327.777C757.146 328.287 757.152 328.731 757.164 329.109C757.176 329.493 757.194 329.823 757.218 330.099C757.242 330.375 757.269 330.606 757.299 330.792C757.329 330.978 757.362 331.134 757.398 331.26V331.296H755.319V331.26C755.355 331.134 755.388 330.978 755.418 330.792C755.454 330.606 755.481 330.375 755.499 330.099C755.523 329.823 755.541 329.493 755.553 329.109C755.571 328.731 755.58 328.287 755.58 327.777V320.811ZM759.54 317.967C759.336 317.967 759.126 317.994 758.91 318.048C758.7 318.096 758.49 318.168 758.28 318.264C758.076 318.354 757.878 318.471 757.686 318.615C757.5 318.753 757.332 318.912 757.182 319.092C757.17 319.32 757.161 319.578 757.155 319.866C757.149 320.154 757.146 320.469 757.146 320.811V325.527C757.266 325.617 757.401 325.701 757.551 325.779C757.701 325.857 757.869 325.929 758.055 325.995C758.247 326.055 758.46 326.103 758.694 326.139C758.934 326.175 759.198 326.193 759.486 326.193C759.954 326.193 760.377 326.109 760.755 325.941C761.133 325.773 761.451 325.53 761.709 325.212C761.973 324.894 762.174 324.507 762.312 324.051C762.456 323.595 762.528 323.079 762.528 322.503C762.528 321.855 762.474 321.255 762.366 320.703C762.258 320.145 762.084 319.665 761.844 319.263C761.61 318.855 761.304 318.537 760.926 318.309C760.548 318.081 760.086 317.967 759.54 317.967ZM771.113 326.85C770.447 326.85 769.823 326.745 769.241 326.535C768.659 326.325 768.152 326.019 767.72 325.617C767.288 325.209 766.946 324.708 766.694 324.114C766.448 323.514 766.325 322.83 766.325 322.062C766.325 321.384 766.439 320.757 766.667 320.181C766.895 319.599 767.21 319.095 767.612 318.669C768.014 318.243 768.482 317.91 769.016 317.67C769.556 317.43 770.138 317.31 770.762 317.31C771.38 317.31 771.953 317.418 772.481 317.634C773.009 317.844 773.465 318.153 773.849 318.561C774.239 318.963 774.545 319.464 774.767 320.064C774.995 320.658 775.118 321.336 775.136 322.098C774.458 322.086 773.78 322.077 773.102 322.071C772.424 322.065 771.719 322.062 770.987 322.062C770.465 322.062 769.955 322.065 769.457 322.071C768.965 322.077 768.521 322.086 768.125 322.098C768.161 322.722 768.257 323.286 768.413 323.79C768.575 324.294 768.794 324.726 769.07 325.086C769.352 325.44 769.691 325.713 770.087 325.905C770.489 326.097 770.942 326.193 771.446 326.193C771.794 326.193 772.121 326.154 772.427 326.076C772.739 325.992 773.021 325.878 773.273 325.734C773.525 325.59 773.75 325.422 773.948 325.23C774.146 325.032 774.314 324.819 774.452 324.591L774.56 324.645L773.894 326.247C773.57 326.415 773.183 326.559 772.733 326.679C772.283 326.793 771.743 326.85 771.113 326.85ZM769.916 321.36C770.516 321.36 771.116 321.36 771.716 321.36C772.322 321.354 772.871 321.342 773.363 321.324C773.309 320.802 773.207 320.334 773.057 319.92C772.907 319.506 772.715 319.155 772.481 318.867C772.247 318.579 771.971 318.357 771.653 318.201C771.335 318.045 770.984 317.967 770.6 317.967C770.252 317.967 769.931 318.045 769.637 318.201C769.349 318.351 769.097 318.57 768.881 318.858C768.665 319.146 768.491 319.5 768.359 319.92C768.227 320.334 768.149 320.808 768.125 321.342C768.395 321.354 768.68 321.36 768.98 321.36C769.28 321.36 769.592 321.36 769.916 321.36Z" fill="#1B232E"/>
<circle cx="329.336" cy="37.136" r="8.448" fill="#E76268" stroke="#1B232E" stroke-width="1.536"/>
<circle cx="502.904" cy="37.136" r="8.448" fill="#E76268" stroke="#1B232E" stroke-width="1.536"/>
<circle cx="562.808" cy="156.944" r="8.448" fill="#E76268" stroke="#1B232E" stroke-width="1.536"/>
<circle cx="502.904" cy="276.752" r="8.448" fill="#E76268" stroke="#1B232E" stroke-width="1.536"/>
<defs>
<clipPath id="clip0_2026_1501">
<rect width="41.2602" height="42.8609" fill="white" transform="translate(82.1115 17.2394)"/>
</clipPath>
<clipPath id="clip1_2026_1501">
<rect width="42.8651" height="38.9608" fill="white" transform="translate(708.799 17.6555)"/>
</clipPath>
<clipPath id="clip2_2026_1501">
<rect width="40.7945" height="40.7945" fill="white" transform="translate(19.0803 135.456)"/>
</clipPath>
<clipPath id="clip3_2026_1501">
<rect x="366.2" y="55.568" width="99.84" height="202.752" rx="12.288" fill="white"/>
</clipPath>
</defs>
</svg>
