<svg width="64" height="64" viewBox="0 0 64 64" fill="none" xmlns="http://www.w3.org/2000/svg">
<rect width="64" height="64" rx="32" fill="#1B232E"/>
<path d="M16.3906 41.9375C16.3906 41.5938 16.4531 41.2734 16.5781 40.9766C16.7188 40.6641 16.8984 40.3984 17.1172 40.1797C17.3516 39.9453 17.6172 39.7656 17.9141 39.6406C18.2266 39.5 18.5547 39.4297 18.8984 39.4297C19.2578 39.4297 19.5859 39.5 19.8828 39.6406C20.1953 39.7656 20.4609 39.9453 20.6797 40.1797C20.9141 40.3984 21.0938 40.6641 21.2188 40.9766C21.3594 41.2734 21.4297 41.5938 21.4297 41.9375C21.4297 42.6562 21.1875 43.2578 20.7031 43.7422C20.2188 44.2266 19.6172 44.4688 18.8984 44.4688C18.5547 44.4688 18.2266 44.3984 17.9141 44.2578C17.6172 44.1328 17.3516 43.9609 17.1172 43.7422C16.8984 43.5078 16.7188 43.2422 16.5781 42.9453C16.4531 42.6328 16.3906 42.2969 16.3906 41.9375Z" fill="#E76268"/>
<path d="M37.9531 44.4219C36.2188 44.4219 34.5938 44.1484 33.0781 43.6016C31.5625 43.0547 30.2422 42.2578 29.1172 41.2109C27.9922 40.1484 27.1016 38.8438 26.4453 37.2969C25.8047 35.7344 25.4844 33.9531 25.4844 31.9531C25.4844 30.1875 25.7812 28.5547 26.375 27.0547C26.9688 25.5391 27.7891 24.2266 28.8359 23.1172C29.8828 22.0078 31.1016 21.1406 32.4922 20.5156C33.8984 19.8906 35.4141 19.5781 37.0391 19.5781C38.6484 19.5781 40.1406 19.8594 41.5156 20.4219C42.8906 20.9688 44.0781 21.7734 45.0781 22.8359C46.0938 23.8828 46.8906 25.1875 47.4688 26.75C48.0625 28.2969 48.3828 30.0625 48.4297 32.0469C46.6641 32.0156 44.8984 31.9922 43.1328 31.9766C41.3672 31.9609 39.5312 31.9531 37.625 31.9531C36.2656 31.9531 34.9375 31.9609 33.6406 31.9766C32.3594 31.9922 31.2031 32.0156 30.1719 32.0469C30.2656 33.6719 30.5156 35.1406 30.9219 36.4531C31.3438 37.7656 31.9141 38.8906 32.6328 39.8281C33.3672 40.75 34.25 41.4609 35.2812 41.9609C36.3281 42.4609 37.5078 42.7109 38.8203 42.7109C39.7266 42.7109 40.5781 42.6094 41.375 42.4062C42.1875 42.1875 42.9219 41.8906 43.5781 41.5156C44.2344 41.1406 44.8203 40.7031 45.3359 40.2031C45.8516 39.6875 46.2891 39.1328 46.6484 38.5391L46.9297 38.6797L45.1953 42.8516C44.3516 43.2891 43.3438 43.6641 42.1719 43.9766C41 44.2734 39.5938 44.4219 37.9531 44.4219ZM34.8359 30.125C36.3984 30.125 37.9609 30.125 39.5234 30.125C41.1016 30.1094 42.5312 30.0781 43.8125 30.0312C43.6719 28.6719 43.4062 27.4531 43.0156 26.375C42.625 25.2969 42.125 24.3828 41.5156 23.6328C40.9062 22.8828 40.1875 22.3047 39.3594 21.8984C38.5312 21.4922 37.6172 21.2891 36.6172 21.2891C35.7109 21.2891 34.875 21.4922 34.1094 21.8984C33.3594 22.2891 32.7031 22.8594 32.1406 23.6094C31.5781 24.3594 31.125 25.2812 30.7812 26.375C30.4375 27.4531 30.2344 28.6875 30.1719 30.0781C30.875 30.1094 31.6172 30.125 32.3984 30.125C33.1797 30.125 33.9922 30.125 34.8359 30.125Z" fill="white"/>
<circle cx="19" cy="42" r="4" fill="#E76268"/>
</svg>
