<svg width="106" height="39" viewBox="0 0 106 39" fill="none" xmlns="http://www.w3.org/2000/svg">
<path d="M2.052 38.8625C1.452 38.8625 0.96 38.6705 0.576 38.2865C0.192 37.9025 0 37.4105 0 36.8105C0 36.2105 0.192 35.7185 0.576 35.3345C0.96 34.9505 1.452 34.7585 2.052 34.7585C2.652 34.7585 3.144 34.9505 3.528 35.3345C3.912 35.7185 4.104 36.2105 4.104 36.8105C4.104 37.4105 3.912 37.9025 3.528 38.2865C3.144 38.6705 2.652 38.8625 2.052 38.8625Z" fill="#1B232E"/>
<path d="M12.9082 38.8625C11.1083 38.8625 9.53625 38.4905 8.19225 37.7465C6.87225 36.9785 5.84025 35.9105 5.09625 34.5425C4.35225 33.1745 3.98025 31.6025 3.98025 29.8265V29.3945C3.98025 27.5945 4.35225 26.0225 5.09625 24.6785C5.84025 23.3105 6.86025 22.2545 8.15625 21.5105C9.47625 20.7425 10.9763 20.3585 12.6562 20.3585C14.2883 20.3585 15.7283 20.7065 16.9762 21.4025C18.2482 22.0745 19.2443 23.0585 19.9643 24.3545C20.6843 25.6265 21.0443 27.1505 21.0443 28.9265V30.0785H6.14025C6.21225 32.2625 6.87225 33.9545 8.12025 35.1545C9.39225 36.3305 10.9882 36.9185 12.9082 36.9185C14.5403 36.9185 15.8003 36.5465 16.6883 35.8025C17.6003 35.0585 18.2963 34.1465 18.7763 33.0665L20.7203 33.9305C20.3602 34.7225 19.8562 35.5025 19.2083 36.2705C18.5843 37.0145 17.7682 37.6385 16.7603 38.1425C15.7522 38.6225 14.4682 38.8625 12.9082 38.8625ZM6.17625 28.2065H18.8483C18.7523 26.3105 18.1403 24.8585 17.0123 23.8505C15.8843 22.8185 14.4323 22.3025 12.6562 22.3025C10.9043 22.3025 9.45225 22.8185 8.30025 23.8505C7.14825 24.8585 6.44025 26.3105 6.17625 28.2065Z" fill="#1B232E"/>
<path d="M24.4628 38.3585L20.5028 20.8625H22.7348L26.1908 36.9185H26.6228L31.1228 20.8625H34.7948L39.2948 36.9185H39.7268L43.1828 20.8625H45.4148L41.4548 38.3585H37.6748L33.1748 22.3025H32.7428L28.2428 38.3585H24.4628Z" fill="#1B232E"/>
<path d="M53.944 38.8625C52.144 38.8625 50.572 38.4905 49.228 37.7465C47.908 36.9785 46.876 35.9105 46.132 34.5425C45.388 33.1745 45.016 31.6025 45.016 29.8265V29.3945C45.016 27.5945 45.388 26.0225 46.132 24.6785C46.876 23.3105 47.896 22.2545 49.192 21.5105C50.512 20.7425 52.012 20.3585 53.692 20.3585C55.324 20.3585 56.764 20.7065 58.012 21.4025C59.284 22.0745 60.28 23.0585 61 24.3545C61.72 25.6265 62.08 27.1505 62.08 28.9265V30.0785H47.176C47.248 32.2625 47.908 33.9545 49.156 35.1545C50.428 36.3305 52.024 36.9185 53.944 36.9185C55.576 36.9185 56.836 36.5465 57.724 35.8025C58.636 35.0585 59.332 34.1465 59.812 33.0665L61.756 33.9305C61.396 34.7225 60.892 35.5025 60.244 36.2705C59.62 37.0145 58.804 37.6385 57.796 38.1425C56.788 38.6225 55.504 38.8625 53.944 38.8625ZM47.212 28.2065H59.884C59.788 26.3105 59.176 24.8585 58.048 23.8505C56.92 22.8185 55.468 22.3025 53.692 22.3025C51.94 22.3025 50.488 22.8185 49.336 23.8505C48.184 24.8585 47.476 26.3105 47.212 28.2065Z" fill="#1B232E"/>
<path d="M63.0757 38.3585V0H65.2357V38.3585H63.0757Z" fill="#1B232E"/>
<path d="M67.2635 38.3585V20.8625H69.4235V38.3585H67.2635ZM68.3435 17.8385C67.8155 17.8385 67.3715 17.6585 67.0115 17.2985C66.6515 16.9385 66.4715 16.4945 66.4715 15.9665C66.4715 15.4145 66.6515 14.9705 67.0115 14.6345C67.3715 14.2745 67.8155 14.0945 68.3435 14.0945C68.8955 14.0945 69.3395 14.2745 69.6755 14.6345C70.0355 14.9705 70.2155 15.4145 70.2155 15.9665C70.2155 16.4945 70.0355 16.9385 69.6755 17.2985C69.3395 17.6585 68.8955 17.8385 68.3435 17.8385Z" fill="#1B232E"/>
<path d="M71.4513 38.3585V20.8625H73.5393V24.1025H73.9713C74.4033 23.1665 75.1113 22.3385 76.0953 21.6185C77.0793 20.8745 78.5073 20.5025 80.3793 20.5025C81.6513 20.5025 82.8153 20.7665 83.8713 21.2945C84.9273 21.8225 85.7673 22.6265 86.3913 23.7065C87.0393 24.7625 87.3633 26.0945 87.3633 27.7025V38.3585H85.2033V27.8465C85.2033 25.9265 84.7233 24.5465 83.7633 23.7065C82.8033 22.8665 81.5193 22.4465 79.9113 22.4465C78.1113 22.4465 76.6113 23.0465 75.4113 24.2465C74.2113 25.4225 73.6113 27.2105 73.6113 29.6105V38.3585H71.4513Z" fill="#1B232E"/>
<path d="M94.5383 38.8625C93.3143 38.8625 92.1983 38.6585 91.1903 38.2505C90.2063 37.8185 89.4263 37.1945 88.8503 36.3785C88.2743 35.5625 87.9863 34.5785 87.9863 33.4265C87.9863 32.2505 88.2743 31.2785 88.8503 30.5105C89.4263 29.7425 90.2063 29.1665 91.1903 28.7825C92.1743 28.3985 93.2663 28.2065 94.4663 28.2065H100.874V26.8025C100.874 25.3865 100.466 24.2825 99.6503 23.4905C98.8343 22.6985 97.6463 22.3025 96.0863 22.3025C94.5503 22.3025 93.3263 22.6865 92.4143 23.4545C91.5263 24.1985 90.9263 25.2065 90.6143 26.4785L88.5263 25.8665C88.8143 24.8345 89.2702 23.9105 89.8942 23.0945C90.5182 22.2545 91.3463 21.5945 92.3783 21.1145C93.4103 20.6105 94.6463 20.3585 96.0863 20.3585C98.2943 20.3585 99.9982 20.9345 101.198 22.0865C102.422 23.2385 103.034 24.8465 103.034 26.9105V35.4065C103.034 36.1265 103.37 36.4865 104.042 36.4865H105.734V38.3585H103.43C102.686 38.3585 102.098 38.1425 101.666 37.7105C101.234 37.2545 101.018 36.6425 101.018 35.8745V35.6225H100.658C100.346 36.1505 99.9382 36.6665 99.4342 37.1705C98.9542 37.6745 98.3183 38.0825 97.5263 38.3945C96.7343 38.7065 95.7383 38.8625 94.5383 38.8625ZM94.6823 36.9185C96.5303 36.9185 98.0183 36.3665 99.1463 35.2625C100.298 34.1345 100.874 32.5505 100.874 30.5105V30.0785H94.5023C93.2543 30.0785 92.2103 30.3545 91.3703 30.9065C90.5543 31.4345 90.1463 32.2625 90.1463 33.3905C90.1463 34.5185 90.5662 35.3945 91.4062 36.0185C92.2702 36.6185 93.3623 36.9185 94.6823 36.9185Z" fill="#1B232E"/>
</svg>
