<svg width="77" height="78" viewBox="0 0 77 78" fill="none" xmlns="http://www.w3.org/2000/svg">
<rect x="0.0999756" y="0.299805" width="76.8" height="76.8" rx="38.4" fill="#E76268"/>
<g clip-path="url(#clip0_2039_3064)">
<path d="M62.0999 37.4957V39.1052L62.0534 39.3632C61.9754 40.0667 61.9199 40.7702 61.812 41.4572C61.4438 43.6866 60.6449 45.8228 59.4599 47.7467C57.7186 50.6388 55.1866 52.9725 52.1624 54.4727C50.4029 55.3577 48.5014 55.9263 46.5449 56.1527C46.1059 56.2057 45.6709 56.2552 45.2399 56.3012H28.3725C28.287 56.2862 28.209 56.2622 28.122 56.2547C26.4304 56.1539 24.7708 55.7489 23.2229 55.0592C19.8239 53.5442 17.2934 51.0977 15.6374 47.7317C14.9098 46.2404 14.4373 44.6377 14.2394 42.9902L14.0984 41.7872V40.2242C14.1134 40.1387 14.1374 40.0517 14.1449 39.9662C14.2304 38.4737 14.5349 37.0127 15.0674 35.6147C16.4969 31.8572 18.9974 29.0672 22.5434 27.2552C24.3629 26.3336 26.3575 25.809 28.3949 25.7162C29.403 25.6697 30.4109 25.7162 31.4025 25.8572C31.4547 25.8636 31.5077 25.8584 31.5577 25.8421C31.6077 25.8258 31.6535 25.7987 31.6919 25.7627C33.1103 24.2841 34.7725 23.0608 36.6059 22.1462C38.3754 21.2555 40.2874 20.6818 42.2549 20.4512C42.7249 20.3982 43.1909 20.3487 43.6529 20.3027H45.0899C45.1844 20.3177 45.2849 20.3342 45.3719 20.3417C46.0904 20.4272 46.8014 20.4827 47.5124 20.6072C49.6919 20.9822 51.7859 21.7862 53.6535 22.9742C56.5295 24.7676 58.8334 27.3452 60.2939 30.4037C61.1684 32.2007 61.7309 34.1387 61.9575 36.1232L62.0984 37.4987L62.0999 37.4957ZM35.256 27.0962C35.2875 27.1352 35.295 27.1592 35.31 27.1592C36.294 27.6587 37.2389 28.2377 38.1299 28.8932C38.184 28.9322 38.3249 28.9172 38.3955 28.8782C40.833 27.3002 43.4894 26.7617 46.3335 27.2687C49.1219 27.7772 51.396 29.1902 53.13 31.4567C55.0905 34.0187 55.8405 36.9182 55.3019 40.1357C54.9344 42.2927 54.0824 44.2367 52.6379 45.8552C49.9979 48.8162 46.6919 50.0432 42.8024 49.5272C40.4114 49.2062 38.3415 48.1517 36.63 46.3937C34.434 44.1437 32.2229 41.9012 30.021 39.6512C29.724 39.3467 29.4044 39.1127 28.9814 39.0572C28.6273 39.008 28.2667 39.0751 27.9539 39.2485C27.6412 39.4219 27.3933 39.6922 27.2475 40.0187C26.9655 40.6127 27.006 41.2922 27.6225 41.9087C30.075 44.3612 32.5049 46.8377 34.959 49.2917C35.382 49.7147 35.8325 50.1027 36.3105 50.4557C38.1 51.7757 40.1234 52.5107 42.3104 52.8077C44.0294 53.0342 45.7319 52.9877 47.4194 52.5962C50.6459 51.8612 53.3174 50.1902 55.4189 47.6042C57.1389 45.5044 58.2304 42.9611 58.5675 40.2677C58.7839 38.696 58.7419 37.0994 58.4429 35.5412C57.951 33.0017 56.8964 30.7292 55.2014 28.7912C51.9674 25.0952 47.8965 23.4467 43.0529 23.8142C41.2013 23.9694 39.4024 24.5094 37.7715 25.3997C36.8745 25.8689 36.0333 26.4375 35.2635 27.0947L35.256 27.0962ZM34.077 52.8782C34.0065 52.8152 33.9434 52.7537 33.8745 52.6907C32.8739 51.7292 31.8659 50.7692 30.8745 49.7927C30.794 49.7033 30.6951 49.6325 30.5844 49.5854C30.4738 49.5382 30.3542 49.5158 30.2339 49.5197C29.2259 49.5437 28.2254 49.5512 27.2339 49.3247C22.3124 48.1922 19.4519 42.7472 21.2654 37.9577C22.6949 34.1837 26.6565 31.8872 30.5625 32.5907C32.313 32.9117 33.8519 33.6692 35.1164 34.9892C36.6554 36.6062 38.2334 38.1692 39.7964 39.7712C40.1474 40.1312 40.5539 40.3022 41.0459 40.2317C41.6714 40.1372 42.1784 39.8327 42.4049 39.1997C42.6315 38.5742 42.5219 37.9892 42.0615 37.5122C40.4279 35.8322 38.8349 34.1057 37.1399 32.4962C33.8429 29.3717 29.9609 28.4417 25.6635 29.7692C19.8899 31.5587 16.5074 37.6202 17.8274 43.6052C19.0304 49.0667 23.7255 52.8872 29.211 52.8947H33.813C33.8835 52.8947 33.9615 52.8872 34.0785 52.8797L34.077 52.8782Z" fill="white"/>
</g>
<defs>
<clipPath id="clip0_2039_3064">
<rect width="48" height="48" fill="white" transform="translate(14.1 14.2998)"/>
</clipPath>
</defs>
</svg>
