<svg width="77" height="78" viewBox="0 0 77 78" fill="none" xmlns="http://www.w3.org/2000/svg">
<rect x="0.0999756" y="0.899902" width="76.8" height="76.8" rx="38.4" fill="#7E57C2"/>
<path d="M46.18 43.1398H42.34V39.2998H38.5V43.1398C38.5 43.5104 38.5 44.4896 40.9077 45.1232C42.2877 45.3674 43.5499 46.0564 44.5018 47.0849C45.4538 48.1134 46.0431 49.4251 46.18 50.8198H50.02V54.6598H53.86V50.8198C53.86 50.0748 52.781 49.1859 51.4524 48.8345C46.8636 47.6326 46.18 44.7526 46.18 43.1398ZM39.9324 48.8345C35.3436 47.6326 34.66 44.7526 34.66 43.1398H30.82V39.2998H26.98V54.6598H30.82V50.8198H38.5V54.6598H42.34V50.8198C42.34 50.0748 41.261 49.1859 39.9324 48.8345Z" fill="white"/>
<path d="M53.8599 16.2593H15.4599V54.6593C15.4599 56.6961 16.269 58.6496 17.7093 60.0899C19.1496 61.5301 21.103 62.3393 23.1399 62.3393H54.1671C56.1225 62.3393 57.9978 61.5625 59.3805 60.1798C60.7631 58.7972 61.5399 56.9219 61.5399 54.9665V23.9393C61.5399 21.9024 60.7308 19.949 59.2905 18.5087C57.8502 17.0684 55.8968 16.2593 53.8599 16.2593ZM57.6999 43.1393H53.8599V39.2993H50.0199V43.1393C50.0199 43.5098 50.0199 44.489 52.4276 45.1226C53.8076 45.3669 55.0698 46.0558 56.0217 47.0844C56.9736 48.1129 57.563 49.4245 57.6999 50.8193V54.6593C57.6999 55.6777 57.2953 56.6544 56.5752 57.3746C55.855 58.0947 54.8783 58.4993 53.8599 58.4993H50.0199C49.0015 58.4993 48.0247 58.0947 47.3046 57.3746C46.5845 56.6544 46.1799 55.6777 46.1799 54.6593C46.1799 55.6777 45.7753 56.6544 45.0552 57.3746C44.335 58.0947 43.3583 58.4993 42.3399 58.4993H38.4999C37.4815 58.4993 36.5047 58.0947 35.7846 57.3746C35.0645 56.6544 34.6599 55.6777 34.6599 54.6593C34.6599 55.6777 34.2553 56.6544 33.5352 57.3746C32.815 58.0947 31.8383 58.4993 30.8199 58.4993H26.9799C25.9615 58.4993 24.9847 58.0947 24.2646 57.3746C23.5445 56.6544 23.1399 55.6777 23.1399 54.6593V39.2993C23.1399 38.2808 23.5445 37.3041 24.2646 36.584C24.9847 35.8638 25.9615 35.4593 26.9799 35.4593H30.8199C31.8383 35.4593 32.815 35.8638 33.5352 36.584C34.2553 37.3041 34.6599 38.2808 34.6599 39.2993C34.6599 38.2808 35.0645 37.3041 35.7846 36.584C36.5047 35.8638 37.4815 35.4593 38.4999 35.4593H42.3399C43.3583 35.4593 44.335 35.8638 45.0552 36.584C45.7753 37.3041 46.1799 38.2808 46.1799 39.2993C46.1799 38.2808 46.5845 37.3041 47.3046 36.584C48.0247 35.8638 49.0015 35.4593 50.0199 35.4593H53.8599C54.8783 35.4593 55.855 35.8638 56.5752 36.584C57.2953 37.3041 57.6999 38.2808 57.6999 39.2993V43.1393Z" fill="white"/>
</svg>
