<svg width="77" height="77" viewBox="0 0 77 77" fill="none" xmlns="http://www.w3.org/2000/svg">
<rect x="0.599976" y="0.600098" width="75.8" height="75.8" rx="37.9" fill="#1B232E"/>
<rect x="0.599976" y="0.600098" width="75.8" height="75.8" rx="37.9" stroke="#1B232E"/>
<path d="M32.1 20.1001H38.1V32.1001H32.1C30.5087 32.1001 28.9826 31.468 27.8573 30.3427C26.7321 29.2175 26.1 27.6914 26.1 26.1001C26.1 24.5088 26.7321 22.9827 27.8573 21.8575C28.9826 20.7322 30.5087 20.1001 32.1 20.1001Z" fill="#F4511E"/>
<path d="M44.1 32.1001H38.1V20.1001H44.1C45.6913 20.1001 47.2174 20.7322 48.3426 21.8575C49.4678 22.9827 50.1 24.5088 50.1 26.1001C50.1 27.6914 49.4678 29.2175 48.3426 30.3427C47.2174 31.468 45.6913 32.1001 44.1 32.1001Z" fill="#FF8A65"/>
<path d="M38.1 38.1001C38.1 41.4138 40.7863 44.1001 44.1 44.1001C47.4137 44.1001 50.1 41.4138 50.1 38.1001C50.1 34.7864 47.4137 32.1001 44.1 32.1001C40.7863 32.1001 38.1 34.7864 38.1 38.1001Z" fill="#29B6F6"/>
<path d="M32.1 32.1001H38.1V44.1001H32.1C30.5087 44.1001 28.9826 43.468 27.8573 42.3427C26.7321 41.2175 26.1 39.6914 26.1 38.1001C26.1 36.5088 26.7321 34.9827 27.8573 33.8575C28.9826 32.7322 30.5087 32.1001 32.1 32.1001Z" fill="#7C4DFF"/>
<path d="M32.1 44.1001H38.1V50.1001C38.1 51.6914 37.4678 53.2175 36.3426 54.3427C35.2174 55.468 33.6913 56.1001 32.1 56.1001C30.5087 56.1001 28.9826 55.468 27.8573 54.3427C26.7321 53.2175 26.1 51.6914 26.1 50.1001C26.1 48.5088 26.7321 46.9827 27.8573 45.8575C28.9826 44.7322 30.5087 44.1001 32.1 44.1001Z" fill="#00E676"/>
</svg>
