<svg width="77" height="77" viewBox="0 0 77 77" fill="none" xmlns="http://www.w3.org/2000/svg">
<g clip-path="url(#clip0_2036_2990)">
<path d="M0.0999756 0.100098H76.9V76.9001H0.0999756V0.100098Z" fill="#F7DF1E"/>
<path d="M16.1002 48.9003L21.3895 45.6992C22.4101 47.5085 23.3384 49.0394 25.5651 49.0394C27.6994 49.0394 29.0454 48.2045 29.0454 44.957V22.8715H35.5408V45.0488C35.5408 51.7764 31.5972 54.8387 25.8435 54.8387C20.6473 54.8387 17.6311 52.1476 16.1 48.8998M39.0689 48.2043L44.3576 45.1422C45.75 47.4159 47.5596 49.0861 50.7607 49.0861C53.4523 49.0861 55.1684 47.7404 55.1684 45.8844C55.1684 43.6575 53.4053 42.8685 50.4359 41.5698L48.8124 40.8732C44.126 38.8787 41.0175 36.3731 41.0175 31.0838C41.0175 26.212 44.7292 22.5 50.529 22.5C54.6584 22.5 57.6279 23.9386 59.7619 27.6967L54.7043 30.9448C53.5906 28.9498 52.3847 28.1611 50.5288 28.1611C48.6263 28.1611 47.42 29.3674 47.42 30.9448C47.42 32.8934 48.6263 33.6826 51.41 34.8889L53.0338 35.5847C58.5553 37.9513 61.6638 40.3637 61.6638 45.7918C61.6638 51.6384 57.0706 54.8395 50.8997 54.8395C44.8682 54.8395 40.9708 51.9629 39.0686 48.2045" fill="black"/>
</g>
<defs>
<clipPath id="clip0_2036_2990">
<rect x="0.0999756" y="0.100098" width="76.8" height="76.8" rx="38.4" fill="white"/>
</clipPath>
</defs>
</svg>
