<svg width="77" height="78" viewBox="0 0 77 78" fill="none" xmlns="http://www.w3.org/2000/svg">
<rect x="0.0999756" y="0.5" width="76.8" height="76.8" rx="38.4" fill="#E7242D"/>
<path d="M44.103 18.0625L19.35 21.2882V21.4752L22.9256 42.8481L28.0072 58.7922L54.1198 51.3565L56.85 28.0653L44.103 18.0625ZM43.4394 20.536L53.7279 28.6219L44.5854 30.2659L39.0052 24.4587L23.468 26.7216L22.0509 23.3288L43.4394 20.536ZM39.2164 30.7191L44.5117 37.3248L35.9278 39.1519L33.8764 35.6208L25.9708 37.1605L24.5379 33.3136L39.2164 30.7191ZM34.4645 42.6218L36.4115 46.4534L28.4775 48.4291L27.0735 44.3104L34.4645 42.6218Z" fill="white"/>
</svg>
